<svg xmlns="http://www.w3.org/2000/svg" viewBox="0 0 599.83 605.17"><defs><style>.cls-1,.cls-6{fill:#00448d;}.cls-2,.cls-5{fill:#00c9f3;}.cls-2,.cls-4,.cls-6,.cls-7{fill-rule:evenodd;}.cls-3{fill:#fff;}.cls-4{fill:#ff623e;}.cls-7{fill:#e3e7eb;}</style></defs><g id="Layer_2" data-name="Layer 2"><g id="Layer_1-2" data-name="Layer 1"><rect class="cls-1" y="2.17" width="200" height="200"/><polygon class="cls-2" points="100 35.17 143.07 50.84 165.98 90.53 158.02 135.67 122.92 165.13 77.08 165.13 41.98 135.67 34.02 90.53 56.93 50.84 100 35.17"/><rect class="cls-3" x="200.83" y="2" width="200" height="200"/><path class="cls-4" d="M250.83,102a50,50,0,1,1-50,50A50,50,0,0,1,250.83,102Z"/><rect class="cls-5" x="300.83" y="2" width="100" height="100"/><rect class="cls-5" x="200.83" y="205" width="200" height="200"/><rect class="cls-3" x="230.83" y="235" width="140" height="140"/><polygon class="cls-6" points="300.83 305 200.83 405 200.83 305 300.83 305"/><rect class="cls-1" x="201" y="405.17" width="200" height="200"/><polygon class="cls-2" points="301.5 540.17 233 405.17 370 405.17 301.5 540.17"/><polygon class="cls-7" points="351 495.17 301 405.17 401 405.17 351 495.17"/><polygon class="cls-7" points="252 495.17 202 405.17 302 405.17 252 495.17"/><polygon class="cls-2" points="499.83 100 399.83 0 499.83 0 499.83 100"/><polygon class="cls-2" points="499.83 100 599.83 200 499.83 200 499.83 100"/><polygon class="cls-2" points="499.83 100 399.83 200 399.83 100 499.83 100"/><polygon class="cls-2" points="499.83 100 599.83 0 599.83 100 499.83 100"/></g></g></svg>