<svg xmlns="http://www.w3.org/2000/svg" xmlns:xlink="http://www.w3.org/1999/xlink" viewBox="0 0 2880.14 1079.77"><defs><style>.cls-1{fill:none;}.cls-2{clip-path:url(#clip-path);}.cls-16,.cls-3{fill:#ff623e;}.cls-4,.cls-9{fill:#e3e7eb;}.cls-15,.cls-5{fill:#ffdc00;}.cls-13,.cls-16,.cls-5,.cls-6,.cls-7,.cls-8,.cls-9{fill-rule:evenodd;}.cls-14,.cls-6{fill:#fff;}.cls-10,.cls-7{fill:#00c9f3;}.cls-12,.cls-8{fill:#00448d;}.cls-11,.cls-13{fill:#1a61b2;}.cls-17{clip-path:url(#clip-path-2);}</style><clipPath id="clip-path" transform="translate(0 -0.9)"><rect id="Shape" class="cls-1" width="1439.69" height="1080.67"/></clipPath><clipPath id="clip-path-2" transform="translate(0 -0.9)"><rect id="Shape-2" data-name="Shape" class="cls-1" x="1440" width="1439.69" height="1080.67"/></clipPath></defs><g id="Layer_2" data-name="Layer 2"><g id="Layer_1-2" data-name="Layer 1"><g id="Kander"><g class="cls-2"><g id="Patterns"><g id="Kander-2" data-name="Kander"><g id="Module"><rect id="Shape-3" data-name="Shape" class="cls-3" y="179.96" width="179.96" height="179.96"/><rect class="cls-4" x="1259.73" y="719.84" width="179.96" height="179.96"/><polygon class="cls-5" points="1259.73 719.85 1439.69 899.81 1259.73 899.81 1259.73 719.85"/><path class="cls-5" d="M449,744.14a67.49,67.49,0,1,1-67.48,67.48A67.49,67.49,0,0,1,449,744.14Z" transform="translate(0 -0.9)"/><polygon class="cls-6" points="179.96 719.85 359.36 719.85 539.88 899.81 179.96 899.81 179.96 719.85"/><polygon class="cls-7" points="359.92 719.85 179.96 899.81 359.92 899.81 359.92 719.85"/><path class="cls-8" d="M269,771.13h.9a40.5,40.5,0,0,1,0,81H269a40.5,40.5,0,0,1,0-81Z" transform="translate(0 -0.9)"/><path class="cls-9" d="M1168.85,24.29a67.49,67.49,0,1,1-67.49,67.49A67.49,67.49,0,0,1,1168.85,24.29Z" transform="translate(0 -0.9)"/><polygon class="cls-7" points="899.81 0 1079.21 0 1259.73 179.96 899.81 179.96 899.81 0"/><polygon class="cls-6" points="1079.77 0 899.81 179.96 1079.77 179.96 1079.77 0"/><path class="cls-8" d="M988.89,51.29h.9a40.49,40.49,0,1,1,0,81h-.9a40.49,40.49,0,0,1,0-81Z" transform="translate(0 -0.9)"/><rect class="cls-10" x="539.88" y="719.84" width="179.96" height="359.92"/><rect class="cls-11" x="629.86" y="809.83" width="89.98" height="90.21"/><rect class="cls-12" x="539.88" y="899.81" width="89.98" height="90.21"/><polygon class="cls-13" points="1439.69 179.96 1439.69 359.92 1259.73 359.92 1259.73 179.96 1439.69 179.96"/><rect class="cls-3" x="1259.73" y="269.94" width="89.98" height="89.98"/><rect class="cls-14" y="719.84" width="179.96" height="179.96"/><polygon class="cls-5" points="89.98 749.54 128.73 763.64 149.35 799.36 142.19 839.97 110.6 866.48 69.36 866.48 37.77 839.97 30.61 799.36 51.23 763.64 89.98 749.54"/><rect class="cls-12" x="1259.73" y="899.81" width="179.96" height="179.96"/><polygon class="cls-7" points="1349.71 929.5 1388.46 943.6 1409.08 979.32 1401.92 1019.93 1370.33 1046.44 1329.09 1046.44 1297.5 1019.93 1290.34 979.32 1310.96 943.6 1349.71 929.5"/><rect class="cls-14" x="719.84" width="179.96" height="179.96"/><polygon class="cls-8" points="809.83 29.69 848.58 43.8 869.2 79.51 862.03 120.12 830.45 146.63 789.21 146.63 757.62 120.12 750.45 79.51 771.07 43.8 809.83 29.69"/><rect class="cls-11" x="719.84" y="719.84" width="179.96" height="179.96"/><rect class="cls-3" x="719.84" y="809.83" width="179.96" height="89.98"/><rect class="cls-15" x="539.88" width="179.96" height="179.96"/><rect class="cls-15" x="899.81" y="719.84" width="179.96" height="179.96"/><polygon class="cls-9" points="1079.77 719.85 899.81 899.81 1079.77 899.81 1079.77 719.85"/><rect class="cls-11" x="359.92" y="359.92" width="179.96" height="179.96"/><rect class="cls-3" x="359.92" y="359.92" width="90.88" height="179.96"/><rect class="cls-15" x="359.92" y="899.81" width="179.96" height="179.96"/><rect class="cls-14" x="899.81" y="359.92" width="179.96" height="179.96"/><path class="cls-16" d="M944.8,450.8a45,45,0,1,1-45,45A45,45,0,0,1,944.8,450.8Z" transform="translate(0 -0.9)"/><rect class="cls-10" x="989.79" y="359.92" width="89.98" height="89.98"/><rect class="cls-14" x="719.84" y="539.88" width="179.96" height="179.96"/><path class="cls-9" d="M809.83,590.27a40.5,40.5,0,1,1-40.5,40.49A40.49,40.49,0,0,1,809.83,590.27Z" transform="translate(0 -0.9)"/><rect class="cls-10" x="899.81" y="539.88" width="179.96" height="179.96"/><rect class="cls-14" x="926.8" y="566.88" width="125.97" height="125.97"/><polygon class="cls-8" points="989.79 629.86 899.81 539.88 989.79 539.88 989.79 629.86"/><rect class="cls-10" y="359.92" width="179.96" height="179.96"/><rect class="cls-14" x="26.99" y="386.92" width="125.97" height="125.97"/><polygon class="cls-8" points="89.98 449.9 0 539.88 0 449.9 89.98 449.9"/><rect class="cls-10" x="359.92" width="179.96" height="179.96"/><rect class="cls-14" x="386.92" y="26.99" width="125.97" height="125.97"/><polygon class="cls-8" points="449.9 89.98 539.88 0 539.88 89.98 449.9 89.98"/><polygon class="cls-13" points="1259.73 539.88 1259.73 719.85 1079.77 719.85 1079.77 539.88 1259.73 539.88"/><polygon class="cls-16" points="1079.77 719.85 1259.73 539.88 1259.73 719.85 1079.77 719.85"/><path class="cls-6" d="M1237.23,632.56a67.49,67.49,0,1,1-67.48-67.48A67.49,67.49,0,0,1,1237.23,632.56Z" transform="translate(0 -0.9)"/><polygon class="cls-6" points="0 539.88 179.96 539.88 179.96 719.85 0 719.85 0 539.88"/><polygon class="cls-9" points="179.96 539.88 0 719.85 179.96 719.85 179.96 539.88"/><polygon class="cls-8" points="179.96 359.92 359.92 539.88 179.96 539.88 179.96 359.92"/><rect class="cls-10" x="269.94" y="359.92" width="89.98" height="89.98"/><polygon class="cls-8" points="359.92 179.96 539.88 359.92 359.92 359.92 359.92 179.96"/><polygon class="cls-16" points="179.96 539.88 359.92 719.85 179.96 719.85 179.96 539.88"/><polygon class="cls-5" points="899.81 539.88 719.85 359.92 899.81 359.92 899.81 539.88"/><rect class="cls-10" x="719.84" y="449.9" width="89.98" height="89.98"/><polygon class="cls-9" points="899.81 449.9 809.83 359.92 899.81 359.92 899.81 449.9"/><polygon class="cls-5" points="359.92 0 179.96 179.96 179.96 0 359.92 0"/><rect class="cls-4" x="269.94" y="89.98" width="89.98" height="89.98"/><polygon class="cls-9" points="269.94 0 179.96 89.98 179.96 0 269.94 0"/><polygon class="cls-5" points="1439.69 539.88 1259.73 719.85 1259.73 539.88 1439.69 539.88"/><rect class="cls-10" x="1349.71" y="629.86" width="89.98" height="89.98"/><polygon class="cls-9" points="1349.71 539.88 1259.73 629.86 1259.73 539.88 1349.71 539.88"/><polygon class="cls-9" points="719.85 359.92 539.88 539.88 719.85 539.88 719.85 359.92"/><rect class="cls-15" x="539.88" y="359.92" width="89.98" height="89.98"/><polygon class="cls-5" points="1259.73 899.81 1079.77 1079.77 1259.73 1079.77 1259.73 899.81"/><rect class="cls-12" x="1079.77" y="899.81" width="89.98" height="89.98"/><polygon class="cls-13" points="1259.73 899.81 1079.77 719.85 1259.73 719.85 1259.73 899.81"/><polygon class="cls-13" points="179.96 179.96 0 0 179.96 0 179.96 179.96"/><rect class="cls-11" x="539.88" y="539.88" width="179.96" height="179.96"/><polygon id="Triangle" class="cls-6" points="630.31 661.65 568.68 539.88 691.95 539.88 630.31 661.65"/><polygon class="cls-16" points="674.85 620.47 629.86 539.88 719.85 539.88 674.85 620.47"/><polygon class="cls-16" points="584.87 620.47 539.88 539.88 629.86 539.88 584.87 620.47"/><rect class="cls-12" y="899.81" width="179.96" height="179.96"/><polygon class="cls-7" points="121.47 989.34 0 1050.97 0 927.7 121.47 989.34"/><polygon class="cls-9" points="80.98 944.8 0 989.79 0 899.81 80.98 944.8"/><polygon class="cls-9" points="80.98 1033.88 0 1078.87 0 988.89 80.98 1033.88"/><rect class="cls-12" x="1259.73" width="179.97" height="179.96"/><polygon class="cls-7" points="1317.76 89.98 1440.14 28.34 1440.14 151.62 1317.76 89.98"/><polygon class="cls-9" points="1358.71 134.97 1439.69 89.98 1439.69 179.96 1358.71 134.97"/><polygon class="cls-9" points="1358.71 44.99 1439.69 0 1439.69 89.98 1358.71 44.99"/><rect class="cls-4" x="179.96" y="179.96" width="179.96" height="179.96"/><polygon class="cls-5" points="270.39 302.95 208.75 179.96 332.03 179.96 270.39 302.95"/><polygon class="cls-5" points="809.83 899.81 899.81 1079.77 719.85 1079.77 809.83 899.81"/><path class="cls-9" d="M1169.75,360.82a90,90,0,1,1-90,90A90,90,0,0,1,1169.75,360.82Z" transform="translate(0 -0.9)"/><path class="cls-6" d="M1169.75,405.81a45,45,0,1,1-45,45A45,45,0,0,1,1169.75,405.81Z" transform="translate(0 -0.9)"/><path class="cls-16" d="M629.86,180.86a90,90,0,1,1-90,90A90,90,0,0,1,629.86,180.86Z" transform="translate(0 -0.9)"/><path class="cls-13" d="M629.86,225.85a45,45,0,1,1-45,45A45,45,0,0,1,629.86,225.85Z" transform="translate(0 -0.9)"/><path class="cls-7" d="M989.79,900.71a90,90,0,1,1-90,90A90,90,0,0,1,989.79,900.71Z" transform="translate(0 -0.9)"/><path class="cls-5" d="M989.79,180.86a90,90,0,1,1-90,90A90,90,0,0,1,989.79,180.86Z" transform="translate(0 -0.9)"/><rect class="cls-14" x="989.79" y="269.94" width="89.98" height="89.98"/><path class="cls-9" d="M269.94,900.71a90,90,0,1,1-90,90A90,90,0,0,1,269.94,900.71Z" transform="translate(0 -0.9)"/><rect class="cls-11" x="269.94" y="989.79" width="89.98" height="89.98"/><polygon class="cls-16" points="809.83 269.94 719.85 179.96 809.83 179.96 809.83 269.94"/><polygon class="cls-16" points="809.83 269.94 899.81 359.92 809.83 359.92 809.83 269.94"/><polygon class="cls-16" points="809.83 269.94 719.85 359.92 719.85 269.94 809.83 269.94"/><polygon class="cls-16" points="809.83 269.94 899.81 179.96 899.81 269.94 809.83 269.94"/><polygon class="cls-7" points="1349.71 449.9 1259.73 359.92 1349.71 359.92 1349.71 449.9"/><polygon class="cls-7" points="1349.71 449.9 1439.69 539.88 1349.71 539.88 1349.71 449.9"/><polygon class="cls-7" points="1349.71 449.9 1259.73 539.88 1259.73 449.9 1349.71 449.9"/><polygon class="cls-7" points="1349.71 449.9 1439.69 359.92 1439.69 449.9 1349.71 449.9"/><polygon class="cls-5" points="449.9 629.86 359.92 539.88 449.9 539.88 449.9 629.86"/><polygon class="cls-5" points="449.9 539.88 359.92 629.86 359.92 539.88 449.9 539.88"/><polygon class="cls-5" points="539.88 629.86 449.9 719.85 449.9 629.86 539.88 629.86"/><polygon class="cls-5" points="539.88 719.85 449.9 629.86 539.88 629.86 539.88 719.85"/><polygon class="cls-5" points="1169.75 269.94 1079.77 179.96 1169.75 179.96 1169.75 269.94"/><polygon class="cls-5" points="1169.75 179.96 1079.77 269.94 1079.77 179.96 1169.75 179.96"/><polygon class="cls-7" points="1259.73 269.94 1169.75 359.92 1169.75 269.94 1259.73 269.94"/><polygon class="cls-7" points="1259.73 359.92 1169.75 269.94 1259.73 269.94 1259.73 359.92"/></g></g></g></g></g><g id="Kander-3" data-name="Kander"><g class="cls-17"><g id="Patterns-2" data-name="Patterns"><g id="Kander-4" data-name="Kander"><g id="Module-2" data-name="Module"><rect id="Shape-4" data-name="Shape" class="cls-3" x="1440" y="179.96" width="179.96" height="179.96"/><rect class="cls-4" x="2699.73" y="719.84" width="179.96" height="179.96"/><polygon class="cls-5" points="2699.73 719.85 2879.69 899.81 2699.73 899.81 2699.73 719.85"/><path class="cls-5" d="M1889,744.14a67.49,67.49,0,1,1-67.48,67.48A67.49,67.49,0,0,1,1889,744.14Z" transform="translate(0 -0.9)"/><polygon class="cls-6" points="1619.96 719.85 1799.36 719.85 1979.88 899.81 1619.96 899.81 1619.96 719.85"/><polygon class="cls-7" points="1799.92 719.85 1619.96 899.81 1799.92 899.81 1799.92 719.85"/><path class="cls-8" d="M1709,771.13h.9a40.5,40.5,0,0,1,0,81h-.9a40.5,40.5,0,0,1,0-81Z" transform="translate(0 -0.9)"/><path class="cls-9" d="M2608.85,24.29a67.49,67.49,0,1,1-67.49,67.49A67.49,67.49,0,0,1,2608.85,24.29Z" transform="translate(0 -0.9)"/><polygon class="cls-7" points="2339.81 0 2519.21 0 2699.73 179.96 2339.81 179.96 2339.81 0"/><polygon class="cls-6" points="2519.77 0 2339.81 179.96 2519.77 179.96 2519.77 0"/><path class="cls-8" d="M2428.89,51.29h.9a40.49,40.49,0,1,1,0,81h-.9a40.49,40.49,0,1,1,0-81Z" transform="translate(0 -0.9)"/><rect class="cls-10" x="1979.88" y="719.84" width="179.96" height="359.92"/><rect class="cls-11" x="2069.86" y="809.83" width="89.98" height="90.21"/><rect class="cls-12" x="1979.88" y="899.81" width="89.98" height="90.21"/><polygon class="cls-13" points="2879.69 179.96 2879.69 359.92 2699.73 359.92 2699.73 179.96 2879.69 179.96"/><rect class="cls-3" x="2699.73" y="269.94" width="89.98" height="89.98"/><rect class="cls-14" x="1440" y="719.84" width="179.96" height="179.96"/><polygon class="cls-5" points="1529.98 749.54 1568.73 763.64 1589.35 799.36 1582.19 839.97 1550.6 866.48 1509.36 866.48 1477.77 839.97 1470.61 799.36 1491.23 763.64 1529.98 749.54"/><rect class="cls-12" x="2699.73" y="899.81" width="179.96" height="179.96"/><polygon class="cls-7" points="2789.71 929.5 2828.46 943.6 2849.08 979.32 2841.92 1019.93 2810.33 1046.44 2769.09 1046.44 2737.5 1019.93 2730.34 979.32 2750.96 943.6 2789.71 929.5"/><rect class="cls-14" x="2159.84" width="179.96" height="179.96"/><polygon class="cls-8" points="2249.82 29.69 2288.58 43.8 2309.2 79.51 2302.03 120.12 2270.45 146.63 2229.21 146.63 2197.61 120.12 2190.45 79.51 2211.07 43.8 2249.82 29.69"/><rect class="cls-11" x="2159.84" y="719.84" width="179.96" height="179.96"/><rect class="cls-3" x="2159.84" y="809.83" width="179.96" height="89.98"/><rect class="cls-15" x="1979.88" width="179.96" height="179.96"/><rect class="cls-15" x="2339.81" y="719.84" width="179.96" height="179.96"/><polygon class="cls-9" points="2519.77 719.85 2339.81 899.81 2519.77 899.81 2519.77 719.85"/><rect class="cls-11" x="1799.92" y="359.92" width="179.96" height="179.96"/><rect class="cls-3" x="1799.92" y="359.92" width="90.88" height="179.96"/><rect class="cls-15" x="1799.92" y="899.81" width="179.96" height="179.96"/><rect class="cls-14" x="2339.81" y="359.92" width="179.96" height="179.96"/><path class="cls-16" d="M2384.8,450.8a45,45,0,1,1-45,45A45,45,0,0,1,2384.8,450.8Z" transform="translate(0 -0.9)"/><rect class="cls-10" x="2429.79" y="359.92" width="89.98" height="89.98"/><rect class="cls-14" x="2159.84" y="539.88" width="179.96" height="179.96"/><path class="cls-9" d="M2249.83,590.27a40.5,40.5,0,1,1-40.5,40.49A40.49,40.49,0,0,1,2249.83,590.27Z" transform="translate(0 -0.9)"/><rect class="cls-10" x="2339.81" y="539.88" width="179.96" height="179.96"/><rect class="cls-14" x="2366.8" y="566.88" width="125.97" height="125.97"/><polygon class="cls-8" points="2429.79 629.86 2339.81 539.88 2429.79 539.88 2429.79 629.86"/><rect class="cls-10" x="1440" y="359.92" width="179.96" height="179.96"/><rect class="cls-14" x="1466.99" y="386.92" width="125.97" height="125.97"/><polygon class="cls-8" points="1529.98 449.9 1440 539.88 1440 449.9 1529.98 449.9"/><rect class="cls-10" x="1799.92" width="179.96" height="179.96"/><rect class="cls-14" x="1826.92" y="26.99" width="125.97" height="125.97"/><polygon class="cls-8" points="1889.9 89.98 1979.88 0 1979.88 89.98 1889.9 89.98"/><polygon class="cls-13" points="2699.73 539.88 2699.73 719.85 2519.77 719.85 2519.77 539.88 2699.73 539.88"/><polygon class="cls-16" points="2519.77 719.85 2699.73 539.88 2699.73 719.85 2519.77 719.85"/><path class="cls-6" d="M2677.23,632.56a67.49,67.49,0,1,1-67.48-67.48A67.49,67.49,0,0,1,2677.23,632.56Z" transform="translate(0 -0.9)"/><polygon class="cls-6" points="1440 539.88 1619.96 539.88 1619.96 719.85 1440 719.85 1440 539.88"/><polygon class="cls-9" points="1619.96 539.88 1440 719.85 1619.96 719.85 1619.96 539.88"/><polygon class="cls-8" points="1619.96 359.92 1799.92 539.88 1619.96 539.88 1619.96 359.92"/><rect class="cls-10" x="1709.94" y="359.92" width="89.98" height="89.98"/><polygon class="cls-8" points="1799.92 179.96 1979.88 359.92 1799.92 359.92 1799.92 179.96"/><polygon class="cls-16" points="1619.96 539.88 1799.92 719.85 1619.96 719.85 1619.96 539.88"/><polygon class="cls-5" points="2339.81 539.88 2159.84 359.92 2339.81 359.92 2339.81 539.88"/><rect class="cls-10" x="2159.84" y="449.9" width="89.98" height="89.98"/><polygon class="cls-9" points="2339.81 449.9 2249.82 359.92 2339.81 359.92 2339.81 449.9"/><polygon class="cls-5" points="1799.92 0 1619.96 179.96 1619.96 0 1799.92 0"/><rect class="cls-4" x="1709.94" y="89.98" width="89.98" height="89.98"/><polygon class="cls-9" points="1709.94 0 1619.96 89.98 1619.96 0 1709.94 0"/><polygon class="cls-5" points="2879.69 539.88 2699.73 719.85 2699.73 539.88 2879.69 539.88"/><rect class="cls-10" x="2789.71" y="629.86" width="89.98" height="89.98"/><polygon class="cls-9" points="2789.71 539.88 2699.73 629.86 2699.73 539.88 2789.71 539.88"/><polygon class="cls-9" points="2159.84 359.92 1979.88 539.88 2159.84 539.88 2159.84 359.92"/><rect class="cls-15" x="1979.88" y="359.92" width="89.98" height="89.98"/><polygon class="cls-5" points="2699.73 899.81 2519.77 1079.77 2699.73 1079.77 2699.73 899.81"/><rect class="cls-12" x="2519.77" y="899.81" width="89.98" height="89.98"/><polygon class="cls-13" points="2699.73 899.81 2519.77 719.85 2699.73 719.85 2699.73 899.81"/><polygon class="cls-13" points="1619.96 179.96 1440 0 1619.96 0 1619.96 179.96"/><rect class="cls-11" x="1979.88" y="539.88" width="179.96" height="179.96"/><polygon id="Triangle-2" data-name="Triangle" class="cls-6" points="2070.31 661.65 2008.68 539.88 2131.95 539.88 2070.31 661.65"/><polygon class="cls-16" points="2114.85 620.47 2069.86 539.88 2159.84 539.88 2114.85 620.47"/><polygon class="cls-16" points="2024.87 620.47 1979.88 539.88 2069.86 539.88 2024.87 620.47"/><rect class="cls-12" x="1440" y="899.81" width="179.96" height="179.96"/><polygon class="cls-7" points="1561.47 989.34 1440 1050.97 1440 927.7 1561.47 989.34"/><polygon class="cls-9" points="1520.98 944.8 1440 989.79 1440 899.81 1520.98 944.8"/><polygon class="cls-9" points="1520.98 1033.88 1440 1078.87 1440 988.89 1520.98 1033.88"/><rect class="cls-12" x="2699.73" width="179.97" height="179.96"/><polygon class="cls-7" points="2757.76 89.98 2880.14 28.34 2880.14 151.62 2757.76 89.98"/><polygon class="cls-9" points="2798.71 134.97 2879.69 89.98 2879.69 179.96 2798.71 134.97"/><polygon class="cls-9" points="2798.71 44.99 2879.69 0 2879.69 89.98 2798.71 44.99"/><rect class="cls-4" x="1619.96" y="179.96" width="179.96" height="179.96"/><polygon class="cls-5" points="1710.39 302.95 1648.76 179.96 1772.03 179.96 1710.39 302.95"/><polygon class="cls-5" points="2249.82 899.81 2339.81 1079.77 2159.84 1079.77 2249.82 899.81"/><path class="cls-9" d="M2609.75,360.82a90,90,0,1,1-90,90A90,90,0,0,1,2609.75,360.82Z" transform="translate(0 -0.9)"/><path class="cls-6" d="M2609.75,405.81a45,45,0,1,1-45,45A45,45,0,0,1,2609.75,405.81Z" transform="translate(0 -0.9)"/><path class="cls-16" d="M2069.86,180.86a90,90,0,1,1-90,90A90,90,0,0,1,2069.86,180.86Z" transform="translate(0 -0.9)"/><path class="cls-13" d="M2069.86,225.85a45,45,0,1,1-45,45A45,45,0,0,1,2069.86,225.85Z" transform="translate(0 -0.9)"/><path class="cls-7" d="M2429.79,900.71a90,90,0,1,1-90,90A90,90,0,0,1,2429.79,900.71Z" transform="translate(0 -0.9)"/><path class="cls-5" d="M2429.79,180.86a90,90,0,1,1-90,90A90,90,0,0,1,2429.79,180.86Z" transform="translate(0 -0.9)"/><rect class="cls-14" x="2429.79" y="269.94" width="89.98" height="89.98"/><path class="cls-9" d="M1709.94,900.71a90,90,0,1,1-90,90A90,90,0,0,1,1709.94,900.71Z" transform="translate(0 -0.9)"/><rect class="cls-11" x="1709.94" y="989.79" width="89.98" height="89.98"/><polygon class="cls-16" points="2249.82 269.94 2159.84 179.96 2249.82 179.96 2249.82 269.94"/><polygon class="cls-16" points="2249.82 269.94 2339.81 359.92 2249.82 359.92 2249.82 269.94"/><polygon class="cls-16" points="2249.82 269.94 2159.84 359.92 2159.84 269.94 2249.82 269.94"/><polygon class="cls-16" points="2249.82 269.94 2339.81 179.96 2339.81 269.94 2249.82 269.94"/><polygon class="cls-7" points="2789.71 449.9 2699.73 359.92 2789.71 359.92 2789.71 449.9"/><polygon class="cls-7" points="2789.71 449.9 2879.69 539.88 2789.71 539.88 2789.71 449.9"/><polygon class="cls-7" points="2789.71 449.9 2699.73 539.88 2699.73 449.9 2789.71 449.9"/><polygon class="cls-7" points="2789.71 449.9 2879.69 359.92 2879.69 449.9 2789.71 449.9"/><polygon class="cls-5" points="1889.9 629.86 1799.92 539.88 1889.9 539.88 1889.9 629.86"/><polygon class="cls-5" points="1889.9 539.88 1799.92 629.86 1799.92 539.88 1889.9 539.88"/><polygon class="cls-5" points="1979.88 629.86 1889.9 719.85 1889.9 629.86 1979.88 629.86"/><polygon class="cls-5" points="1979.88 719.85 1889.9 629.86 1979.88 629.86 1979.88 719.85"/><polygon class="cls-5" points="2609.75 269.94 2519.77 179.96 2609.75 179.96 2609.75 269.94"/><polygon class="cls-5" points="2609.75 179.96 2519.77 269.94 2519.77 179.96 2609.75 179.96"/><polygon class="cls-7" points="2699.73 269.94 2609.75 359.92 2609.75 269.94 2699.73 269.94"/><polygon class="cls-7" points="2699.73 359.92 2609.75 269.94 2699.73 269.94 2699.73 359.92"/></g></g></g></g></g></g></g></svg>