<svg id="Layer_1" data-name="Layer 1" xmlns="http://www.w3.org/2000/svg" xmlns:xlink="http://www.w3.org/1999/xlink" viewBox="0 0 1080 1080"><defs><style>.cls-1{fill:none;}.cls-2{clip-path:url(#clip-path);}.cls-14,.cls-3{fill:#ff623e;}.cls-13,.cls-4{fill:#ffdc00;}.cls-14,.cls-15,.cls-4,.cls-5,.cls-6,.cls-7,.cls-8{fill-rule:evenodd;}.cls-12,.cls-5{fill:#fff;}.cls-6,.cls-9{fill:#00c9f3;}.cls-11,.cls-7{fill:#00448d;}.cls-16,.cls-8{fill:#e3e7eb;}.cls-10,.cls-15{fill:#1a61b2;}</style><clipPath id="clip-path"><rect id="Shape" class="cls-1" x="-179.67" y="-0.67" width="1439.69" height="1080.67"/></clipPath></defs><g id="Kander"><g class="cls-2"><g id="Patterns"><g id="Kander-2" data-name="Kander"><g id="Module"><rect id="Shape-2" data-name="Shape" class="cls-3" x="-179.67" y="180.19" width="179.96" height="179.96"/><path class="cls-4" d="M269.33,743.47A67.49,67.49,0,1,1,201.85,811,67.49,67.49,0,0,1,269.33,743.47Z"/><polygon class="cls-5" points="0.29 720.08 179.69 720.08 360.21 900.04 0.29 900.04 0.29 720.08"/><polygon class="cls-6" points="180.25 720.08 0.29 900.04 180.25 900.04 180.25 720.08"/><path class="cls-7" d="M89.37,770.47h.9a40.49,40.49,0,0,1,0,81h-.9a40.49,40.49,0,0,1,0-81Z"/><path class="cls-8" d="M989.18,23.63a67.49,67.49,0,1,1-67.49,67.48A67.48,67.48,0,0,1,989.18,23.63Z"/><polygon class="cls-6" points="720.13 0.23 899.53 0.23 1080.06 180.19 720.13 180.19 720.13 0.23"/><polygon class="cls-5" points="900.1 0.23 720.13 180.19 900.1 180.19 900.1 0.23"/><path class="cls-7" d="M809.22,50.62h.9a40.49,40.49,0,1,1,0,81h-.9a40.49,40.49,0,1,1,0-81Z"/><rect class="cls-9" x="360.21" y="720.08" width="179.96" height="359.92"/><rect class="cls-10" x="450.19" y="810.06" width="89.98" height="90.21"/><rect class="cls-11" x="360.21" y="900.04" width="89.98" height="90.21"/><rect class="cls-12" x="-179.67" y="720.08" width="179.96" height="179.96"/><rect class="cls-12" x="540.17" y="0.23" width="179.96" height="179.96"/><polygon class="cls-7" points="630.15 29.93 668.91 44.03 689.52 79.75 682.36 120.36 650.77 146.87 609.53 146.87 577.94 120.36 570.78 79.75 591.4 44.03 630.15 29.93"/><rect class="cls-10" x="540.17" y="720.08" width="179.96" height="179.96"/><rect class="cls-3" x="540.17" y="810.06" width="179.96" height="89.98"/><rect class="cls-13" x="360.21" y="0.23" width="179.96" height="179.96"/><rect class="cls-13" x="720.13" y="720.08" width="179.96" height="179.96"/><polygon class="cls-8" points="900.1 720.08 720.13 900.04 900.1 900.04 900.1 720.08"/><rect class="cls-10" x="180.25" y="360.16" width="179.96" height="179.96"/><rect class="cls-3" x="180.25" y="360.16" width="90.88" height="179.96"/><rect class="cls-13" x="180.25" y="900.04" width="179.96" height="179.96"/><rect class="cls-12" x="720.13" y="360.16" width="179.96" height="179.96"/><path class="cls-14" d="M765.12,450.14a45,45,0,1,1-45,45A45,45,0,0,1,765.12,450.14Z"/><rect class="cls-9" x="810.12" y="360.16" width="89.98" height="89.98"/><rect class="cls-12" x="540.17" y="540.12" width="179.96" height="179.96"/><path class="cls-8" d="M630.15,589.61a40.49,40.49,0,1,1-40.49,40.49A40.49,40.49,0,0,1,630.15,589.61Z"/><rect class="cls-9" x="720.13" y="540.12" width="179.96" height="179.96"/><rect class="cls-12" x="747.13" y="567.11" width="125.97" height="125.97"/><polygon class="cls-7" points="810.12 630.1 720.13 540.12 810.12 540.12 810.12 630.1"/><rect class="cls-9" x="-179.67" y="360.16" width="179.96" height="179.96"/><rect class="cls-9" x="180.25" y="0.23" width="179.96" height="179.96"/><rect class="cls-12" x="207.25" y="27.23" width="125.97" height="125.97"/><polygon class="cls-7" points="270.23 90.21 360.21 0.23 360.21 90.21 270.23 90.21"/><polygon class="cls-15" points="1080.06 540.12 1080.06 720.08 900.1 720.08 900.1 540.12 1080.06 540.12"/><polygon class="cls-14" points="900.1 720.08 1080.06 540.12 1080.06 720.08 900.1 720.08"/><path class="cls-5" d="M1057.56,631.9a67.49,67.49,0,1,1-67.48-67.49A67.48,67.48,0,0,1,1057.56,631.9Z"/><polygon class="cls-5" points="-179.67 540.12 0.29 540.12 0.29 720.08 -179.67 720.08 -179.67 540.12"/><polygon class="cls-8" points="0.29 540.12 -179.67 720.08 0.29 720.08 0.29 540.12"/><polygon class="cls-7" points="0.29 360.15 180.25 540.12 0.29 540.12 0.29 360.15"/><rect class="cls-9" x="90.27" y="360.16" width="89.98" height="89.98"/><polygon class="cls-7" points="180.25 180.19 360.21 360.15 180.25 360.15 180.25 180.19"/><polygon class="cls-14" points="0.29 540.12 180.25 720.08 0.29 720.08 0.29 540.12"/><polygon class="cls-4" points="720.13 540.12 540.17 360.15 720.13 360.15 720.13 540.12"/><rect class="cls-9" x="540.17" y="450.14" width="89.98" height="89.98"/><polygon class="cls-8" points="720.13 450.14 630.15 360.15 720.13 360.15 720.13 450.14"/><polygon class="cls-4" points="180.25 0.23 0.29 180.19 0.29 0.23 180.25 0.23"/><rect class="cls-16" x="90.27" y="90.21" width="89.98" height="89.98"/><polygon class="cls-8" points="90.27 0.23 0.29 90.21 0.29 0.23 90.27 0.23"/><polygon class="cls-8" points="540.17 360.15 360.21 540.12 540.17 540.12 540.17 360.15"/><rect class="cls-13" x="360.21" y="360.16" width="89.98" height="89.98"/><polygon class="cls-4" points="1080.06 900.04 900.1 1080 1080.06 1080 1080.06 900.04"/><rect class="cls-11" x="900.1" y="900.04" width="89.98" height="89.98"/><polygon class="cls-15" points="1080.06 900.04 900.1 720.08 1080.06 720.08 1080.06 900.04"/><polygon class="cls-15" points="0.29 180.19 -179.67 0.23 0.29 0.23 0.29 180.19"/><rect class="cls-10" x="360.21" y="540.12" width="179.96" height="179.96"/><polygon id="Triangle" class="cls-5" points="450.64 661.88 389.01 540.12 512.28 540.12 450.64 661.88"/><polygon class="cls-14" points="495.18 620.7 450.19 540.12 540.17 540.12 495.18 620.7"/><polygon class="cls-14" points="405.2 620.7 360.21 540.12 450.19 540.12 405.2 620.7"/><rect class="cls-11" x="-179.67" y="900.04" width="179.96" height="179.96"/><rect class="cls-16" x="0.29" y="180.19" width="179.96" height="179.96"/><polygon class="cls-4" points="90.72 303.18 29.08 180.19 152.36 180.19 90.72 303.18"/><polygon class="cls-4" points="630.15 900.04 720.13 1080 540.17 1080 630.15 900.04"/><path class="cls-8" d="M990.08,360.16a90,90,0,1,1-90,90A90,90,0,0,1,990.08,360.16Z"/><path class="cls-5" d="M990.08,405.15a45,45,0,1,1-45,45A45,45,0,0,1,990.08,405.15Z"/><path class="cls-14" d="M450.19,180.19a90,90,0,1,1-90,90A90,90,0,0,1,450.19,180.19Z"/><path class="cls-15" d="M450.19,225.18a45,45,0,1,1-45,45A45,45,0,0,1,450.19,225.18Z"/><path class="cls-6" d="M810.12,900a90,90,0,1,1-90,90A90,90,0,0,1,810.12,900Z"/><path class="cls-4" d="M810.12,180.19a90,90,0,1,1-90,90A90,90,0,0,1,810.12,180.19Z"/><rect class="cls-12" x="810.12" y="270.17" width="89.98" height="89.98"/><path class="cls-8" d="M90.27,900a90,90,0,1,1-90,90A90,90,0,0,1,90.27,900Z"/><rect class="cls-10" x="90.27" y="990.02" width="89.98" height="89.98"/><polygon class="cls-14" points="630.15 270.18 540.17 180.19 630.15 180.19 630.15 270.18"/><polygon class="cls-14" points="630.15 270.18 720.13 360.15 630.15 360.15 630.15 270.18"/><polygon class="cls-14" points="630.15 270.18 540.17 360.15 540.17 270.18 630.15 270.18"/><polygon class="cls-14" points="630.15 270.18 720.13 180.19 720.13 270.18 630.15 270.18"/><polygon class="cls-4" points="270.23 630.1 180.25 540.12 270.23 540.12 270.23 630.1"/><polygon class="cls-4" points="270.23 540.12 180.25 630.1 180.25 540.12 270.23 540.12"/><polygon class="cls-4" points="360.21 630.1 270.23 720.08 270.23 630.1 360.21 630.1"/><polygon class="cls-4" points="360.21 720.08 270.23 630.1 360.21 630.1 360.21 720.08"/><polygon class="cls-4" points="990.08 270.18 900.1 180.19 990.08 180.19 990.08 270.18"/><polygon class="cls-4" points="990.08 180.19 900.1 270.18 900.1 180.19 990.08 180.19"/><polygon class="cls-6" points="1080.06 270.18 990.08 360.15 990.08 270.18 1080.06 270.18"/><polygon class="cls-6" points="1080.06 360.15 990.08 270.18 1080.06 270.18 1080.06 360.15"/></g></g></g></g></g></svg>