<svg xmlns="http://www.w3.org/2000/svg" viewBox="0 0 1254.64 299.65"><defs><style>.cls-1{fill:#4d4d4d;}</style></defs><g id="Layer_2" data-name="Layer 2"><g id="Layer_1-2" data-name="Layer 1"><path id="path1948" class="cls-1" d="M123.07,25.22a170.45,170.45,0,0,0-28.71,2.45c-25.43,4.49-30,13.9-30,31.24V81.8H124.4v7.64H41.76C24.3,89.44,9,99.93,4.23,119.9c-5.52,22.89-5.76,37.17,0,61.07,4.27,17.78,14.47,30.46,31.93,30.46H56.82V184c0-19.83,17.16-37.33,37.54-37.33h60c16.7,0,30-13.75,30-30.53V58.9c0-16.28-13.74-28.51-30-31.24A188.18,188.18,0,0,0,123.07,25.22ZM90.57,43.63A11.45,11.45,0,1,1,79.29,55.12,11.4,11.4,0,0,1,90.57,43.63Z"/><path id="path1950" class="cls-1" d="M191.9,89.43v26.68c0,20.69-17.53,38.09-37.53,38.09h-60c-16.44,0-30,14.08-30,30.54V242c0,16.28,14.15,25.86,30,30.53,19,5.59,37.26,6.61,60,0,15.12-4.38,30-13.19,30-30.53v-22.9h-60v-7.63h90.06c17.46,0,24-12.18,30-30.47,6.28-18.82,6-36.92,0-61.06-4.31-17.39-12.56-30.46-30-30.46ZM158.15,234.32a11.46,11.46,0,1,1-11.28,11.42A11.35,11.35,0,0,1,158.15,234.32Z"/><path class="cls-1" d="M864.66,96.07c5.52-13.44,6.87-27.79,5.79-42.37a42,42,0,0,0-8.55-22.63C845.08,9.41,826,3.34,802.5,8.93c-21,5-38.86,15.87-54.17,30.8A121,121,0,0,0,732.5,58.87C724.78,70.38,720.4,83.22,721,97.32c.53,13.1,8.29,23.22,20.35,26.8a40.12,40.12,0,0,0,5.51.84c-.17-1.12-.11-1.58-.31-1.77a11.06,11.06,0,0,0-2.43-2c-6.31-3.07-8.62-8.75-9.25-15.09a47.77,47.77,0,0,1,.57-12.63c2.07-12,7.54-22.36,15.24-31.63C767,42.2,787.81,29.59,812.39,22.94a55.11,55.11,0,0,1,21-1.86c12.05,1.44,14.88,2.28,18.1,15.42,2.81,11.41,1.26,22.82-1.55,34.08-2.46,9.86-5.31,19.46-10.48,28.15-7.68,12.92-25.11,40.25-51.38,58.07,1.7-40.87,3.9-82.26,4-87.28,0-.26,0-.49.06-.76l0,0c0-.26,0-.53,0-.82a2.43,2.43,0,0,0-.66-1.38c-1.56-2.91-7.34-5.61-9.61-7.34-6.85-5.21-9.19-4.36-10.27,4.2-2.88,16.68-2.76,29.82-4.2,63-.48,11-.8,26-1,41.74a84.73,84.73,0,0,1-29.79,5.46c-2.46,0-5,.85-6,4.34a20.88,20.88,0,0,0,17.13,7.89,98.51,98.51,0,0,0,18.51-1.75c-.11,17.16-.11,33.86,0,45.91,0,3.71,7.14,7.67,10.11,9.65,7.16,4.77,9.44,3.79,10-4.83-.47-10.41.06-32.48,1-57.22C830.79,158.91,857.43,113.65,864.66,96.07Z"/><path class="cls-1" d="M477.77,249.72c-1.91.09-7.69,5.65-13.62,5.94C440.67,256.77,406,181,398.69,158.31c40.82-34,56-95.79,56.39-106,1-28.6-29.4-55.38-57.74-52a100.11,100.11,0,0,0-36,11.63C342.1,22.23,326,36,314.83,55c-6.45,11-10.28,22.89-9.58,35.85.75,13.81,10.24,25,22.77,27a14.55,14.55,0,0,0,3.5-.4,7.29,7.29,0,0,0-.88-1.42,10.24,10.24,0,0,0-2.11-1.57c-6.38-3-8.72-8.64-9.4-15a46.6,46.6,0,0,1,.5-12.64,65.74,65.74,0,0,1,13.84-30c16.64-21,38.31-34.21,64-41a53.7,53.7,0,0,1,28.3-.19c3.28.9,6.13,2.58,7,5.86,9.15,34.07-16.4,98.73-61.69,129.07,1.65-38.76,3.63-76.3,3.72-81.06,0-.26,0-.48.06-.75l0,0c0-.27,0-.54,0-.83a2.42,2.42,0,0,0-.66-1.38c-1.56-2.9-7.34-5.61-9.61-7.34-6.85-5.2-9.19-4.36-10.27,4.21-2.88,16.67-2.76,29.81-4.2,63-.42,9.52-.71,22-.91,35.37a87.08,87.08,0,0,1-29.82,5.31,4,4,0,0,0-4.36,3.79c5,6.92,14.31,9.77,23.31,9.77A97.52,97.52,0,0,0,349,180c-.15,18.55-.14,36.95,0,49.94,0,3.71,7.15,7.67,10.12,9.65,7.16,4.77,9.43,3.79,10-4.83-.49-10.76.1-34,1.06-59.76a91.19,91.19,0,0,0,10.42-4.61c8.95,24.27,38.78,99,76.86,97.14C472.33,266.87,479.54,249.63,477.77,249.72Z"/><path class="cls-1" d="M1136.42,99.68a19.65,19.65,0,0,1-5.8-2c-12.38-6.32-21.77-4.18-28.92,6.77a46.36,46.36,0,0,0-4.5,8.38c-8,20.59-9.91,42.14-11.25,60.26,0,15.07,1.59,23.7,5.33,31.19,7.35,14.72,16,17.9,30.32,15.61a16.27,16.27,0,0,0,12.49-8.89,100.12,100.12,0,0,0,5.88-13.58c6-17.67,8.92-35.93,10.84-54.44a99,99,0,0,0-2.18-32.09C1147,103.46,1143.86,100.86,1136.42,99.68Zm.64,43.59c-2.46,16.25-4.7,32.53-9.74,48.23a136.4,136.4,0,0,1-5.66,14.26c-1.05,2.33-3,6.73-4.32,6.73-1.53,0-7.09-7.3-8.3-11.51a73.92,73.92,0,0,1-2.84-24.65c1.06-18.56,9.87-61.62,15.72-69.37,3.48-4.6,8.39-4.06,11.25,1.11a19.29,19.29,0,0,1,1.93,5.44C1137.29,124,1138.67,132.61,1137.06,143.27Z"/><path class="cls-1" d="M1254.64,149.14s-.29-15-.48-22.71a77.55,77.55,0,0,0-2.72-18.35c-1.92-7-11.73-10.47-18.55-12.11-3.26-.78-6-.21-8.11,2.39-4,4.89-31.69,64.49-33.53,69.15v-8.87c.16-6.56.31-14.91,0-23.88,0-8.94-.14-15.95-.29-18.68-.21-3.71-7.15-7.68-10.12-9.66-7.16-4.77-9.43-3.78-10,4.84,0,11,.87,111.34,1.09,112.91.44,3.22,2.27,4.93,5.55,5.33,5.57.67,11.82.49,13.06-2.11,14.12-69.46,37.61-105.75,46.31-120.24,0,3.49.11,5.91,0,8.31-.7,12-1.54,24-2.19,36,0,.77-.6,75.72-.09,84.54.21,3.7,7.14,7.67,10.11,9.65,7.17,4.77,9.44,3.79,10-4.83C1254.61,223.88,1254.57,149.65,1254.64,149.14Z"/><path class="cls-1" d="M610.75,91.7c-.76-.3-1.54-.58-2.34-.81-4.67-1.33-5.4-1-6.67,3.84-2.06,7.85-6.37,24.79-6.94,26.82-2.22-4.84-4.18-10.56-6.41-14.52-5.74-10.18-14.23-16.88-26.3-16.88-13,0-30.34,24.85-33.5,60.11-8.89,17.94-35.48,62.23-47.24,62.23-10.58,0-16.31-30.12-17-39.87a27.33,27.33,0,0,1,.26-3.89c13.64,1.64,24.76-2.34,33.66-12.34,8.13-9.15,13.38-19.88,17.19-31.39,2.76-8.34,3.29-17,2.92-25.67a16.46,16.46,0,0,0-7.92-13.69c-9.36-5.94-19.3-7.6-29.69-2.55-10.84,5.26-18.88,13.52-25.05,23.71-8.23,13.58-9.41,28.57-11.31,44.14-2,16.09,1.45,37.12,10.06,50.77,4.8,7.61,9.22,12.73,17.38,16.36,12.5,5.56,23.54,4,32.61-6.39,3.59-4.12,16.42-23,24.35-36.43A136.69,136.69,0,0,0,534.7,203c3.6,11.17,8.82,12.49,19.91,14.57,4,.75,7-.51,8.88-4.07,2.41-4.71,20.8-39.41,25.17-52.6.77,2.66,3.27,72.23,6.3,85.86,1.08,4.88,4,8.28,8.76,9.74,3.35,1,11.06,2.6,14.19,1.71-2.34-5.88-3.43-19.86-3.86-26.91-.46-7.58-1.54-73,1.52-97.94,1.18-9.61,2.32-19.23,3.12-28.88A12.57,12.57,0,0,0,610.75,91.7Zm-135,26.19c5.21-10,16.34-25.83,28.43-25.83,7.89,3.6,4.37,14.12,3.62,18.08-3.33,17.69-11.28,33-24.66,45.18-4.91,4.49-10.73,6.56-18.08,7.2a5.27,5.27,0,0,1-.47-1.83C466.35,145.92,468.74,131.31,475.72,117.89Zm105.53,28c-10.1,21.42-21.64,47.75-24.58,49.95-6.53,0-11.65-92.33,13-92.33,2.86,0,12.12,15.78,13.41,19.42C585.79,130.59,584.88,138.2,581.25,145.93Z"/><path class="cls-1" d="M684.05,222.54c-1.9,0-11.11,6-15.66,6s-6.44-28.22-6.46-36.78c0,0,3.51-137.53,3.06-146.35-.19-3.71-7.1-7.72-10-9.72-7.14-4.81-9.42-3.84-10,4.78-3.12,42.36-3.53,151.06-3.12,157.58,0,5.7-.13,41.42,21.08,41.42C677.84,239.41,685.82,222.54,684.05,222.54Z"/><path class="cls-1" d="M1054.05,114.2c-7.39-3.16-11.27-2.11-17,3.49-8.68,8.45-28.62,58.92-28.82,58.88,0-6.06,0-98.84,0-98.84,0-17.48-.13-33.72-.34-37.51s-7.14-7.68-10.12-9.66c-5.72-3.8-8.29-3.93-9.37.55,0,0-.1,0-.12.05s0,.21,0,.5a29.06,29.06,0,0,0-.45,3.74c0,19,.06,62.3.08,81.81-10.51-.19-33.48-.43-33.48-.43,0-2.54.2-78.7-.3-87.51-.21-3.7-7.14-7.67-10.11-9.65-7.16-4.77-9.44-3.79-10,4.83,0,29.21,0,92.34,0,92.34-3.86,0-27.52-1.15-27.52,1.11s17.32,12.47,18.91,12.47H934s-.17,75,.34,83.83c.21,3.7,7.14,7.68,10.11,9.65,7.16,4.77,9.44,3.79,10-4.83V130.37c5-.19,20.4.31,33.49.44,0,19.44.16,95,.23,96.31.21,3.7,7.14,7.67,10.11,9.65,5.67,3.77,8.28,3.93,9.39-.44,5.49-30.16,37.42-114.59,42.81-114.68a82.19,82.19,0,0,1,0,8.53c-.53,4.64-1.78,110.1-1.67,116.34.06,3.71,7.14,7.68,10.11,9.66,7.16,4.77,9.44,3.78,10-4.84,0-6.19-1.33-114.13-2.2-120.77C1065.68,122.78,1061.35,117.33,1054.05,114.2Z"/><path class="cls-1" d="M895.36,131.69c-7.16-4.76-9.44-3.78-10,4.84-12.39,73.57-29.46,99.29-32.55,99.29-1.84,0-1.31-27.31-1.39-35.91l0-6.32c-.08-18.73.16-10-.35-18.83-.21-3.7-7.14-7.67-10.11-9.65-7.17-4.77-9.44-3.79-10,4.83,0,7.19.4,42.32.4,47.54,1,8.11,1.9,19,9.71,23.06,14.61,7.69,21.18,5.8,29.66-6.71,3.94-5.81,13.33-31.89,13.89-32.79-.45,18.26.86,85-20.24,85-18.65,0-22.17-22.79-24.4-22.79-1.84,0-5,36.36,28,36.36s38-43,38-81.33-1-71.82-1.31-77.95C904.61,136.67,898.33,133.67,895.36,131.69Z"/></g></g></svg>