<svg width="20" height="20" viewBox="0 0 20 20" fill="none" xmlns="http://www.w3.org/2000/svg">
<path d="M2.91668 4.22275C2.56013 3.89171 2.38281 3.48194 2.38281 2.99439C2.38281 2.50683 2.56108 2.07903 2.91668 1.74704C3.27323 1.416 3.73219 1.25 4.29452 1.25C4.85684 1.25 5.2978 1.416 5.6534 1.74704C6.00995 2.07808 6.18726 2.4945 6.18726 2.99439C6.18726 3.49427 6.009 3.89171 5.6534 4.22275C5.29685 4.5538 4.84452 4.71979 4.29452 4.71979C3.74452 4.71979 3.27323 4.5538 2.91668 4.22275ZM5.88762 6.12175V16.2712H2.68151V6.12175H5.88762Z" fill="#786A30"/>
<path d="M16.5647 7.12459C17.2636 7.88343 17.6126 8.92493 17.6126 10.251V16.0922H14.5677V10.6627C14.5677 9.99396 14.3942 9.47414 14.048 9.1042C13.7019 8.73427 13.2354 8.54836 12.6512 8.54836C12.0671 8.54836 11.6005 8.73332 11.2544 9.1042C10.9083 9.47414 10.7348 9.99396 10.7348 10.6627V16.0922H7.67188V6.09351H10.7348V7.41957C11.0449 6.97755 11.4631 6.62849 11.9884 6.37143C12.5137 6.11438 13.1045 5.98633 13.7617 5.98633C14.9318 5.98633 15.8668 6.36575 16.5647 7.12459Z" fill="#786A30"/>
</svg>
