<svg width="220" height="318" viewBox="0 0 220 318" fill="none" xmlns="http://www.w3.org/2000/svg">
<path d="M174.074 173.255C175.101 174.853 176.308 176.346 177.658 177.704V177.705L177.304 178.058C178.67 179.433 180.182 180.672 181.801 181.746L182.077 181.329V181.328C183.67 182.385 185.369 183.278 187.139 183.979V183.979L186.955 184.444C187.86 184.803 188.783 185.112 189.721 185.368C190.274 185.519 190.876 185.644 191.533 185.747L191.61 185.254V185.253C192.643 185.415 193.827 185.516 195.189 185.566V185.569L195.171 186.069C195.745 186.09 196.349 186.102 196.985 186.104C198.742 186.111 200.358 186.011 201.887 185.784L201.813 185.29L201.812 185.289C205.053 184.809 207.863 183.747 210.801 181.898L210.802 181.899L211.068 182.322C212.355 181.512 213.662 180.557 215.032 179.441C215.411 179.133 215.751 178.862 216.058 178.623L215.75 178.229C216.802 177.41 217.481 176.97 217.979 176.831L218.114 177.313C218.285 177.265 218.375 177.281 218.436 177.306C218.499 177.331 218.58 177.388 218.691 177.512C218.696 177.537 218.703 177.571 218.709 177.615C218.729 177.764 218.749 177.987 218.768 178.293C218.806 178.904 218.838 179.812 218.867 181.053L219.366 181.041C219.408 182.854 219.44 185.361 219.462 188.654L218.964 188.658C218.979 190.842 218.989 193.371 218.996 196.274L219.493 196.273C219.498 198.574 219.503 201.11 219.503 203.893H219.005C219.005 206.252 219.003 208.789 219 211.513L219.5 211.514C219.497 213.903 219.491 216.435 219.486 219.116H218.988C218.986 220.357 218.983 221.63 218.98 222.936C218.978 224.189 218.975 225.443 218.973 226.697H219.472C219.466 229.205 219.461 231.714 219.455 234.222L218.955 234.221C218.949 236.728 218.944 239.236 218.938 241.744L219.438 241.745C219.433 244.253 219.426 246.76 219.421 249.268H218.922C218.916 251.775 218.911 254.283 218.905 256.791H219.404C219.399 259.299 219.393 261.807 219.388 264.314H218.889C218.886 265.403 218.883 266.491 218.881 267.579C217.757 267.584 216.632 267.589 215.508 267.594L215.509 268.093C212.929 268.104 210.349 268.115 207.769 268.126L207.768 267.627C205.188 267.638 202.607 267.649 200.027 267.66L200.028 268.159C197.448 268.17 194.868 268.181 192.288 268.192L192.286 267.693C189.706 267.704 187.126 267.715 184.546 267.726L184.548 268.226C181.968 268.237 179.388 268.248 176.808 268.259L176.806 267.759L169.065 267.792L169.066 268.291C166.486 268.302 163.906 268.313 161.326 268.324L161.325 267.825C158.745 267.836 156.164 267.847 153.584 267.858L153.586 268.357C151.006 268.368 148.426 268.38 145.846 268.391L145.844 267.891C143.264 267.902 140.684 267.913 138.104 267.924L138.105 268.424C135.525 268.435 132.945 268.446 130.365 268.457L130.363 267.957L126.493 267.974L126.328 267.975L126.196 268.073C126.103 268.143 126.009 268.213 125.916 268.282L126.215 268.682C126.028 268.821 125.843 268.96 125.656 269.1L125.357 268.699C125.264 268.769 125.17 268.839 125.077 268.908C124.878 269.057 124.678 269.246 124.489 269.453L124.858 269.79L124.859 269.791C124.555 270.123 124.255 270.531 124.023 270.934L123.591 270.684C123.455 270.919 123.335 271.161 123.247 271.393C122.971 272.118 122.816 272.805 122.826 273.499L123.326 273.492L123.327 273.491C123.342 274.594 123.825 275.668 124.888 277.034L124.887 277.035L124.492 277.342C124.862 277.818 125.298 278.324 125.801 278.872C126.821 279.984 127.698 281.088 128.443 282.206L128.857 281.929C130.523 284.428 131.554 287.013 132.042 289.919L131.551 290.002C131.774 291.332 131.883 292.735 131.883 294.236C131.883 295.773 131.771 297.205 131.541 298.558L132.032 298.641C131.523 301.636 130.444 304.268 128.702 306.755L128.294 306.469C127.605 307.452 126.808 308.416 125.896 309.373L125.499 309.783C124.827 310.463 124.123 311.094 123.395 311.675L123.705 312.064C122.169 313.288 120.518 314.293 118.787 315.071L118.583 314.617C116.853 315.395 115.043 315.939 113.188 316.238L113.268 316.731C111.379 317.037 109.447 317.095 107.507 316.894L107.559 316.396C106.631 316.3 105.701 316.144 104.774 315.926L104.381 315.829C103.468 315.596 102.576 315.303 101.709 314.955L101.522 315.419C99.4768 314.599 97.5689 313.481 95.8496 312.119L96.1592 311.729C94.48 310.399 92.985 308.831 91.7246 307.078L91.3193 307.368C90.0477 305.599 89.0098 303.647 88.2568 301.562L88.7266 301.394C88.3642 300.39 88.0697 299.355 87.8477 298.295L87.7275 297.664C87.6186 297.028 87.5435 296.38 87.501 295.724L87.0029 295.755C86.89 294.011 87.0012 292.216 87.3184 290.442L87.8105 290.53C88.116 288.822 88.6155 287.133 89.2891 285.529L88.8281 285.336C89.4441 283.87 90.2026 282.473 91.0898 281.195L91.4443 280.7L91.8467 280.997C92.3673 280.292 92.9284 279.629 93.5273 279.018C94.147 278.385 94.6764 277.774 95.1133 277.179L94.71 276.883L94.709 276.882C95.8634 275.309 96.3163 273.894 96.0986 272.509H96.0996L96.5937 272.431C96.4668 271.623 96.1378 270.841 95.6318 270.068L95.4717 269.812C95.4205 269.727 95.3652 269.636 95.3066 269.548C95.1862 269.367 95.0409 269.181 94.8281 269.011C94.4067 268.674 93.7982 268.463 92.791 268.307L92.7148 268.801L92.7139 268.802C91.5275 268.618 89.6389 268.498 86.5234 268.42L86.5244 268.419L86.5371 267.919C84.8552 267.877 82.818 267.847 80.3447 267.826L80.3408 268.326L80.3398 268.327C78.519 268.312 76.4606 268.3 74.1318 268.292H74.1328L74.1338 267.792C72.251 267.786 70.1915 267.782 67.9385 267.779V268.279H67.9375C66.0132 268.277 63.9475 268.276 61.7295 268.275V267.775C59.7791 267.775 57.7107 267.774 55.5176 267.774V268.275C53.5565 268.276 51.4954 268.275 49.3291 268.275V267.775H42.3457V268.275H34.6465V267.775H26.9473V268.275H19.248V267.775H11.5488V268.275H3.84961V267.775H0.500977C0.503414 266.674 0.506356 265.572 0.508789 264.47L0.00878906 264.469L0.0078125 264.468C0.0134171 261.93 0.0188247 259.392 0.0244141 256.854L0.0253906 256.855L0.525391 256.856C0.530979 254.319 0.536411 251.782 0.541992 249.244L0.0419922 249.243L0.0410156 249.242L0.0585937 241.63L0.558594 241.631C0.564175 239.093 0.569606 236.555 0.575195 234.018L0.0751953 234.017L0.0917969 226.403L0.591797 226.404L0.609375 218.791L0.109375 218.79L0.108398 218.789C0.114004 216.251 0.119409 213.714 0.125 211.176L0.125977 211.177L0.625977 211.178C0.631567 208.64 0.636995 206.103 0.642578 203.565L0.142578 203.563L0.141602 203.562L0.15918 195.951L0.65918 195.952C0.664763 193.414 0.67019 190.877 0.675781 188.339L0.175781 188.338C0.181373 185.8 0.186777 183.262 0.192383 180.724L0.193359 180.725L0.693359 180.726C0.696162 179.457 0.698365 178.188 0.701172 176.919L0.427734 176.918L0.423828 176.887L0.422852 176.886C0.571264 176.865 0.719752 176.844 0.868164 176.823L0.938477 177.318L1.16016 177.287L1.16113 177.286C1.25693 177.273 1.43741 177.293 1.74219 177.436L1.9541 176.983C2.36102 177.174 2.85093 177.504 3.44043 177.98L3.12793 178.368C3.3365 178.537 3.55939 178.725 3.79687 178.935C4.55906 179.607 5.35709 180.242 6.18359 180.836L6.47559 180.43V180.429C8.11112 181.604 9.86064 182.617 11.665 183.434V183.435L11.459 183.891C12.3952 184.314 13.347 184.685 14.3057 185C15.0601 185.248 15.7012 185.443 16.3223 185.593L16.4404 185.107V185.105C17.6427 185.396 18.7468 185.509 20.5312 185.549V185.553L20.5205 186.053C21.1266 186.066 21.8085 186.071 22.5947 186.071C23.3699 186.071 24.0445 186.067 24.6445 186.054L24.6338 185.554L24.6328 185.55C26.4036 185.511 27.506 185.402 28.6758 185.124L28.6768 185.126L28.792 185.612C29.2575 185.502 29.7308 185.366 30.251 185.202L30.7891 185.028C31.8843 184.666 32.9521 184.239 33.9873 183.751L33.7744 183.299L33.7734 183.298C35.8275 182.33 37.7502 181.12 39.501 179.714L39.502 179.716L39.8154 180.105C41.6149 178.66 43.2351 177.01 44.6309 175.2L44.2354 174.895L44.2334 174.894C45.6183 173.098 46.7782 171.144 47.667 169.077L47.668 169.078L48.127 169.276C48.4679 168.484 48.7698 167.674 49.0303 166.851L49.2773 166.023C49.5789 164.944 49.8068 163.725 49.9619 162.448L49.4658 162.389L49.4629 162.388C49.7436 160.076 49.7839 157.544 49.5791 155.266H49.583L50.0811 155.221C49.9641 153.92 49.7672 152.691 49.4863 151.623L49.3633 151.172C49.0686 150.123 48.7155 149.099 48.3066 148.104L47.8437 148.295H47.8428C46.9095 146.026 45.6835 143.912 44.207 141.997H44.208L44.6035 141.692C43.0933 139.734 41.3266 137.98 39.3486 136.477L39.0459 136.874L39.0449 136.875C37.1286 135.418 35.0106 134.2 32.7324 133.262H32.7334L32.9238 132.799C31.7903 132.332 30.618 131.934 29.4121 131.609L29.043 131.516C28.158 131.306 27.1115 131.153 25.9932 131.053L25.9482 131.551L25.9473 131.553C23.802 131.36 21.3435 131.363 19.1904 131.559V131.557L19.1455 131.059C18.0316 131.16 16.9868 131.313 16.0986 131.521L15.7285 131.614C14.7327 131.879 13.7339 132.21 12.748 132.599L12.9316 133.063C11.0297 133.812 9.17162 134.781 7.47266 135.907L7.19629 135.49C6.53285 135.93 5.89245 136.394 5.28223 136.879L4.68262 137.37C4.29491 137.698 3.94886 137.991 3.63867 138.253L3.95996 138.634C2.89842 139.529 2.2561 140.058 1.83008 140.339L1.55664 139.924C1.32762 140.075 1.23075 140.1 1.20703 140.104C1.20003 140.1 1.1907 140.093 1.17773 140.084C1.12674 140.048 1.07625 140.004 0.983398 139.927C0.978745 139.916 0.971898 139.899 0.963867 139.874C0.933563 139.779 0.89813 139.617 0.863281 139.348C0.793931 138.811 0.735309 137.932 0.688477 136.492L0.189453 136.508C0.134196 134.809 0.0960544 132.36 0.0683594 128.829L0.567383 128.826C0.550589 126.686 0.537637 124.146 0.52832 121.136L0.0302734 121.137C0.0232173 118.856 0.0184246 116.305 0.0146484 113.452H0.512695C0.509589 111.105 0.507284 108.553 0.505859 105.779L0.00585937 105.78C0.0046279 103.383 0.00421964 100.819 0.00390625 98.0771H0.50293L0.50293 90.4375H0.00292969L0.00292969 82.8486H0.50293L0.50293 75.2607H0.00292969L0.00292969 67.6719H0.50293L0.50293 60.083H0.00292969L0.00292969 52.4951H0.50293L0.50293 49.2002C1.62172 49.2002 2.74059 49.2002 3.85937 49.2002V48.6992C6.43002 48.6991 9.00066 48.6993 11.5713 48.6992V49.2002C14.142 49.2001 16.7134 49.2003 19.2842 49.2002V48.7002L19.2832 48.6992C21.8542 48.6991 24.4251 48.6993 26.9961 48.6992V49.1992C29.5667 49.1991 32.1374 49.1993 34.708 49.1992V48.6992C37.2786 48.6991 39.8493 48.6993 42.4199 48.6992V49.1992C43.7053 49.1992 44.991 49.1993 46.2764 49.1992C47.6382 49.1992 48.9601 49.1984 50.2432 49.1982V48.6973C53.0733 48.697 55.7149 48.6962 58.1807 48.6953L58.1816 48.6973V49.1973C61.0604 49.1962 63.6997 49.1949 66.1201 49.1924V48.6924L66.1191 48.6895C69.0735 48.6864 71.7016 48.684 74.041 48.6777L74.042 48.6787L74.0439 49.1787C77.1698 49.1704 79.7808 49.1582 81.9658 49.1416L81.9629 48.6416L81.9619 48.6396C85.7038 48.6113 88.1948 48.5705 89.8838 48.5068L89.9023 49.0068C92.7894 48.8981 93.4545 48.7308 94.0303 48.3799H94.0312C94.2526 48.2449 94.4786 48.0644 94.6943 47.8643L94.3535 47.498L94.3516 47.4961C94.6944 47.1779 95.0398 46.7776 95.3154 46.374L95.3164 46.375L95.7295 46.6572C95.8887 46.4242 96.0307 46.1838 96.1416 45.9502C96.4733 45.2513 96.6786 44.5873 96.707 43.9053L96.208 43.8848L96.2061 43.8838C96.25 42.8241 95.8015 41.7762 94.748 40.3857L94.75 40.3848L95.1484 40.083C94.7928 39.6136 94.3728 39.1106 93.8877 38.5625L93.3623 37.9453C92.8419 37.312 92.3381 36.6305 91.8594 35.916L91.4434 36.1943C90.1837 34.314 89.1014 32.2157 88.3252 30.1592L88.792 29.9844C88.3799 28.8928 88.0583 27.8169 87.8457 26.7988L87.7432 26.2715C87.5213 25.0383 87.4215 23.7975 87.4355 22.5625L86.9355 22.5566C86.9688 19.6346 87.6228 16.7478 88.7832 14.0664L89.2422 14.2646C90.3713 11.6557 91.9911 9.24456 93.9922 7.19629L93.6348 6.84668C95.6643 4.7693 98.0775 3.05725 100.766 1.875L100.968 2.33203C102.26 1.76381 103.616 1.32082 105.024 1.02246C105.956 0.82496 106.881 0.684102 107.796 0.598633L107.749 0.102539C109.696 -0.0793397 111.603 -0.0167586 113.454 0.288086L113.374 0.782227C115.214 1.08539 116.996 1.63214 118.703 2.41699L118.911 1.96387C120.606 2.74314 122.227 3.75113 123.757 4.9834L123.445 5.37207C124.161 5.94819 124.856 6.57531 125.53 7.25195C126.606 8.33147 127.531 9.42468 128.315 10.5508L128.724 10.2646C130.442 12.7296 131.515 15.3651 132.024 18.3633L131.534 18.4473C131.763 19.7972 131.876 21.2269 131.878 22.7559C131.88 24.2649 131.776 25.6667 131.559 26.9902L132.05 27.0713C131.571 29.9831 130.546 32.5491 128.864 35.0537L128.451 34.7764C127.706 35.8852 126.827 36.9854 125.801 38.1035C125.153 38.8094 124.607 39.4729 124.164 40.1045L124.573 40.3906C123.317 42.1831 122.972 43.6531 123.486 45.1006L123.484 45.1016L123.014 45.2695C123.291 46.0489 123.783 46.7981 124.455 47.5508C124.551 47.6578 124.647 47.7651 124.742 47.8721L125.114 47.5381V47.5371C125.306 47.7513 125.497 47.9655 125.688 48.1797V48.1807L125.316 48.5146C125.412 48.6215 125.508 48.728 125.604 48.835L125.751 49.001L125.974 49.002C127.271 49.0075 128.568 49.013 129.865 49.0186L129.868 48.5186V48.5176C132.463 48.5286 135.057 48.5398 137.651 48.5508V48.5518L137.649 49.0518C140.244 49.0628 142.838 49.074 145.433 49.085L145.436 48.585V48.584C148.03 48.595 150.624 48.6062 153.219 48.6172V48.6182L153.217 49.1182C155.811 49.1292 158.406 49.1394 161 49.1504L161.002 48.6504C163.596 48.6614 166.191 48.6726 168.785 48.6836L168.784 49.1836L176.567 49.2168L176.57 48.7168V48.7158C179.165 48.7268 181.759 48.738 184.354 48.749V48.75L184.352 49.25C186.946 49.261 189.54 49.2722 192.135 49.2832L192.137 48.7832V48.7822C194.731 48.7932 197.326 48.8044 199.921 48.8154V48.8164L199.919 49.3164C202.513 49.3274 205.108 49.3376 207.702 49.3486L207.703 48.8486C210.298 48.8596 212.893 48.8708 215.487 48.8818L215.486 49.3818C216.618 49.3866 217.749 49.3907 218.881 49.3955C218.883 50.4872 218.886 51.5792 218.889 52.6709L219.388 52.6699C219.393 55.1839 219.399 57.6979 219.404 60.2119H219.405L218.905 60.2129C218.911 62.7269 218.916 65.2409 218.922 67.7549L219.421 67.7539C219.426 70.2676 219.433 72.7813 219.438 75.2949V75.2959L218.938 75.2969C218.944 77.8109 218.949 80.3249 218.955 82.8389L219.455 82.8379V82.8369C219.461 85.3512 219.466 87.8656 219.472 90.3799L218.973 90.3809C218.975 91.6379 218.978 92.8953 218.98 94.1523C218.983 95.4663 218.987 96.7426 218.989 97.9824L219.487 97.9814C219.493 100.713 219.499 103.266 219.503 105.654H219.504L219.004 105.655C219.009 108.418 219.013 110.958 219.015 113.295H219.513C219.515 116.139 219.514 118.681 219.512 120.953H219.015C219.012 123.953 219.005 126.481 218.993 128.612L219.491 128.614C219.471 132.135 219.436 134.573 219.384 136.264L218.887 136.249C218.843 137.659 218.787 138.528 218.72 139.065C218.686 139.335 218.651 139.503 218.62 139.605C218.606 139.652 218.593 139.676 218.588 139.688C218.376 139.898 218.247 140.01 218.15 140.064L218.395 140.498C218.023 140.708 217.711 140.585 217.106 140.059L217.435 139.683C217.285 139.552 217.112 139.393 216.909 139.2L216.495 138.813C215.526 137.921 214.537 137.106 213.524 136.366L213.229 136.77H213.229C210.811 135.003 208.264 133.677 205.538 132.766H205.539L205.698 132.292C204.314 131.829 202.885 131.472 201.406 131.217L200.905 131.135C199.737 130.955 198.575 130.854 197.424 130.827L197.412 131.327H197.411C194.74 131.264 192.13 131.609 189.646 132.305V132.303L189.512 131.821C186.924 132.546 184.471 133.644 182.224 135.058L182.49 135.48L182.491 135.482C180.273 136.877 178.258 138.584 176.516 140.544L176.515 140.543L176.141 140.211C174.379 142.193 172.89 144.43 171.746 146.863L172.198 147.076L172.2 147.077C171.103 149.411 170.327 151.926 169.938 154.571H169.937L169.443 154.498C169.252 155.8 169.152 157.132 169.152 158.488C169.152 159.601 169.212 160.675 169.336 161.73L169.833 161.672V161.671C170.078 163.76 170.582 165.765 171.381 167.846L171.379 167.847L170.912 168.025C171.284 168.994 171.718 169.976 172.217 170.987C172.647 171.858 173.127 172.706 173.654 173.525L174.074 173.255Z" stroke="#786A30" stroke-dasharray="7 7"/>
</svg>
