<svg width="269" height="219" viewBox="0 0 269 219" fill="none" xmlns="http://www.w3.org/2000/svg">
<path d="M219.249 34.4189C219.255 36.9681 219.261 39.5173 219.267 42.0664V42.0674L218.767 42.0684C218.769 43.3431 218.773 44.6179 218.775 45.8926C218.778 47.2557 218.781 48.5791 218.784 49.8633L219.284 49.8623V49.8613C219.291 52.6865 219.297 55.3235 219.303 57.7852V57.7861L218.803 57.7871C218.81 60.6716 218.817 63.3155 218.824 65.7393L219.324 65.7373L219.326 65.7363C219.335 68.6925 219.343 71.3212 219.354 73.6602V73.6611L218.854 73.6641C218.868 76.7943 218.884 79.4059 218.904 81.5889L219.404 81.584V81.583C219.439 85.342 219.488 87.8275 219.556 89.5L219.553 89.501L219.054 89.5205C219.116 91.0715 219.197 91.9591 219.311 92.5215C219.369 92.8089 219.438 93.0268 219.525 93.2119C219.613 93.3973 219.711 93.5316 219.794 93.6445C219.942 93.847 220.135 94.0576 220.347 94.2617L220.693 93.9014L220.694 93.8994C221.03 94.2221 221.442 94.5552 221.853 94.8271L221.577 95.2441C221.809 95.398 222.045 95.5379 222.271 95.6504C222.995 96.0098 223.68 96.2334 224.387 96.2617L224.406 95.7627V95.7607C225.482 95.804 226.551 95.3206 228.006 94.1846L228.008 94.1875L228.315 94.582C228.675 94.3016 229.055 93.9835 229.46 93.6279L229.875 93.2588C230.633 92.5765 231.414 91.949 232.216 91.3779L231.927 90.9727C233.635 89.756 235.436 88.7868 237.3 88.0713L237.479 88.5361C239.362 87.8131 241.309 87.3564 243.287 87.1719L243.241 86.6738C245.253 86.4862 247.297 86.5744 249.338 86.9463L249.249 87.4385C250.219 87.6152 251.188 87.8573 252.154 88.166C253.4 88.5643 254.595 89.0738 255.729 89.6807L255.964 89.2402C258.321 90.5022 260.42 92.1748 262.185 94.1357L261.814 94.4697C263.557 96.4057 264.965 98.629 265.964 101.017L266.425 100.823C267.447 103.267 268.049 105.881 268.151 108.538V108.547L267.652 108.566C267.695 109.691 267.647 110.823 267.5 111.952L267.431 112.437C267.192 113.98 266.816 115.459 266.308 116.865L266.776 117.034C265.706 119.997 264.063 122.65 261.891 124.92L261.53 124.575C260.625 125.521 259.625 126.4 258.534 127.205L258.062 127.546C257.094 128.225 256.135 128.806 255.163 129.294L255.387 129.739C253.319 130.779 251.184 131.419 248.792 131.719L248.73 131.225C247.662 131.358 246.538 131.423 245.34 131.423C243.726 131.423 242.224 131.299 240.8 131.039L240.71 131.53C237.669 130.975 234.947 129.808 232.226 127.897L232.514 127.49C231.345 126.67 230.172 125.707 228.969 124.588L228.631 124.285C228.516 124.185 228.4 124.087 228.283 123.991L227.967 124.378L227.965 124.379C227.473 123.976 226.967 123.613 226.54 123.355L226.542 123.354L226.801 122.927C226.473 122.729 226.144 122.56 225.875 122.492L225.616 122.435C225.013 122.315 224.405 122.308 223.812 122.401L223.891 122.895V122.896C222.709 123.082 221.585 123.715 220.686 124.707L220.315 124.371C219.936 124.79 219.596 125.265 219.304 125.792L219.182 126.021L219.181 126.021C219.135 126.111 219.114 126.209 219.102 126.27C219.087 126.343 219.074 126.43 219.062 126.526C219.04 126.72 219.019 126.98 218.999 127.304C218.96 127.952 218.925 128.885 218.894 130.122L219.394 130.135H219.395C219.348 132.002 219.31 134.578 219.279 137.945H219.278L218.778 137.94C218.758 140.188 218.741 142.789 218.728 145.766L219.228 145.768H219.229C219.219 148.128 219.208 150.726 219.201 153.573H219.2L218.7 153.571C218.694 155.995 218.69 158.599 218.687 161.392L219.187 161.393C219.184 163.847 219.183 166.447 219.183 169.197H218.682C218.681 170.471 218.681 171.777 218.681 173.116V176.939H219.181V184.587H218.681V192.234H219.181V199.882H218.681V207.529H219.181V215.177H218.681V218.5H215.756V219H208.906V218.5H202.058V219H195.208V218.5H188.358V219H181.51V218.5H174.66V219H167.811V218.5H160.961V219H154.112V218.5H147.263V219H140.413V218.5H133.564V219H126.715V218.5H119.865V219H113.016V218.5H106.167V219H99.3174V218.5H92.4678V219H85.6182V218.5H78.7695V219H71.9199V218.5H65.0703V219H58.2217V218.5H51.3721V219H44.5225V218.5H37.6729V219H30.8242V218.5H23.9746V219H17.125V218.5H10.2764V219H3.42676V218.5H0.501953V215.218H0.00195312V207.654H0.501953V200.091H0.00195312V192.527H0.501953V184.964H0.00195312V177.4H0.501953V169.707H0.00292969C0.00309554 166.929 0.00389063 164.332 0.00488281 161.904H0.503906C0.505065 159.068 0.506537 156.463 0.509766 154.071H0.0136719C0.0175905 151.168 0.0196993 148.578 0.0283203 146.267L0.52832 146.269C0.539755 143.203 0.555693 140.63 0.579102 138.471L0.0810547 138.466C0.120618 134.816 0.178559 132.344 0.268555 130.67L0.768555 130.696C0.859014 129.014 0.978232 128.21 1.11133 127.83C1.13688 127.757 1.15861 127.713 1.17383 127.687C1.19045 127.697 1.21004 127.709 1.23145 127.724C1.35361 127.807 1.52391 127.934 1.73438 128.099L2.04199 127.705C2.43972 128.017 2.95517 128.445 3.52051 128.934L3.19434 129.312C3.42623 129.513 3.66692 129.724 3.91113 129.941C4.70943 130.653 5.61759 131.348 6.5918 132.004L6.87109 131.589V131.587C8.66536 132.796 10.7023 133.881 12.7158 134.701V134.702L12.5273 135.166C13.6114 135.607 14.6926 135.974 15.7305 136.244C16.2184 136.371 16.782 136.483 17.3945 136.577L17.4707 136.083V136.079C18.4542 136.23 19.5829 136.338 20.749 136.392V136.394L20.7266 136.894C21.2783 136.919 21.8383 136.932 22.3955 136.932C23.5736 136.932 24.6551 136.887 25.6846 136.787L25.6357 136.29L25.6348 136.288C27.8305 136.074 29.766 135.6 31.917 134.756L31.918 134.759L32.1006 135.225C32.813 134.945 33.5465 134.626 34.3174 134.264L35.1006 133.888C35.8074 133.541 36.4285 133.213 37.0078 132.869L36.752 132.439L36.751 132.438C37.9184 131.745 38.8991 130.992 40.1123 129.865L40.1133 129.866L40.4541 130.232C40.6899 130.013 40.9334 129.78 41.1885 129.532L41.9902 128.739C42.6413 128.085 43.2507 127.425 43.8193 126.757L43.4385 126.433L43.4375 126.432C44.6347 125.024 45.6446 123.581 46.4766 122.079L46.4775 122.08L46.915 122.322C47.7982 120.728 48.4859 119.068 48.9883 117.316L48.5068 117.179L48.5059 117.178C48.9792 115.527 49.2844 113.793 49.4326 111.951L49.4346 111.952L49.9326 111.992C49.9854 111.336 50.0184 110.666 50.0322 109.983L50.04 109.296C50.0414 108.424 50.0023 107.559 49.9248 106.702L49.835 105.849L49.3379 105.908H49.3369C49.0608 103.635 48.506 101.432 47.6934 99.3398H47.6943L48.1602 99.1592C47.3244 97.0074 46.2214 94.9711 44.876 93.0947L44.4697 93.3857H44.4688C43.1609 91.562 41.6196 89.8921 39.8672 88.418H39.8682L40.1904 88.0352C39.3163 87.2998 38.3902 86.6129 37.416 85.9785L36.7803 85.5771C36.1393 85.1853 35.485 84.8224 34.8193 84.4893L34.5957 84.9365L34.5947 84.9375C32.8289 84.0537 30.9819 83.3788 29.0918 82.9111H29.0928L29.2129 82.4258C27.2706 81.9451 25.2842 81.6786 23.2949 81.623L23.2812 82.123H23.2803C21.3217 82.0684 19.3599 82.2227 17.4346 82.5811V82.5801L17.3428 82.0889C15.3855 82.4532 13.465 83.0252 11.6221 83.8027L11.8164 84.2637C10.0221 85.0207 8.3037 85.9763 6.69922 87.126L6.69824 87.125L6.40723 86.7188C5.60044 87.2969 4.82155 87.9231 4.07617 88.5977C3.81237 88.8364 3.56821 89.0519 3.34082 89.2441L3.66113 89.624C3.00148 90.1817 2.47577 90.5614 2.04688 90.7852L1.81641 90.3438C1.46883 90.5251 1.27271 90.548 1.16797 90.5332L0.943359 90.502L0.873047 90.9961H0.87207C0.722966 90.975 0.573909 90.9537 0.424805 90.9326L0.428711 90.9004H0.700195C0.697388 89.6316 0.694208 88.3625 0.691406 87.0938H0.191406C0.185804 84.5563 0.180389 82.0189 0.174805 79.4814H0.674805C0.66922 76.944 0.663779 74.4066 0.658203 71.8691H0.158203C0.152628 69.332 0.1462 66.7949 0.140625 64.2578L0.641602 64.2568C0.636026 61.7195 0.630585 59.1819 0.625 56.6445L0.124023 56.6455C0.118439 54.1081 0.113024 51.5706 0.107422 49.0332L0.608398 49.0312C0.605598 47.7627 0.602416 46.4941 0.599609 45.2256L0.59082 41.457H0.0908203C0.085272 38.9443 0.0797501 36.4316 0.0742188 33.9189H0.574219C0.568688 31.4064 0.56314 28.8934 0.557617 26.3809H0.0576172C0.0520959 23.8688 0.0465367 21.3568 0.0410156 18.8447L0.541992 18.8438C0.53647 16.3312 0.530921 13.8182 0.525391 11.3057L0.0244141 11.3066C0.0188835 8.79395 0.0133595 6.28125 0.0078125 3.76855H0.00878906L0.508789 3.76758C0.506385 2.67839 0.503385 1.58919 0.500977 0.5H3.4248V0H10.2734V0.5H17.123V0H23.9717V0.5H30.8213V0H37.6699V0.5H44.5195V0H51.3682V0.5H58.2178V0H65.0674V0.5H71.916V0H78.7656V0.5H85.6143V0H92.4639V0.5H99.3125V0H106.162V0.5H113.011V0H119.86V0.5H126.709V0H133.559V0.5H140.407V0H147.257V0.5H154.105V0H160.955V0.5H167.805V0H174.653V0.5H181.503V0H188.352V0.5H195.201V0H202.05V0.5H208.899V0H215.748V0.5H218.674C218.676 1.6084 218.679 2.7168 218.682 3.8252L219.181 3.82422C219.186 6.37337 219.193 8.92253 219.198 11.4717V11.4727L218.698 11.4736C218.704 14.0232 218.71 16.5735 218.716 19.123L219.215 19.1211C219.221 21.6706 219.227 24.2201 219.232 26.7695V26.7705L218.732 26.7715C218.738 29.3209 218.744 31.8705 218.75 34.4199L219.249 34.4189Z" stroke="#786A30" stroke-dasharray="7 7"/>
</svg>
