<svg width="268" height="220" viewBox="0 0 268 220" fill="none" xmlns="http://www.w3.org/2000/svg">
<path d="M215.85 0V0.5H218.775V3.84961H219.275V11.5488H218.775V19.248H219.275V26.9463H218.775V34.6455H219.275V42.3447H218.775V49.3496H219.275C219.275 51.5286 219.275 53.6017 219.274 55.5742H218.774C218.774 57.7833 218.774 59.8669 218.774 61.8311H219.274C219.275 64.0633 219.276 66.142 219.278 68.0781H219.277L218.777 68.0791C218.78 70.3482 218.784 72.4215 218.79 74.3164L219.29 74.3154L219.291 74.3145C219.299 76.6572 219.31 78.7269 219.327 80.5566L219.326 80.5576L218.826 80.5625C218.849 83.0549 218.881 85.1043 218.928 86.793L219.427 86.7793V86.7783C219.514 89.9553 219.652 91.8456 219.863 93.0078L219.861 93.0088L219.369 93.0986C219.549 94.0863 219.798 94.678 220.205 95.0693C220.405 95.2619 220.621 95.3837 220.822 95.4814C221.056 95.5951 221.184 95.6411 221.411 95.7588C221.637 95.8754 221.916 95.9767 222.211 96.0625L222.35 95.583V95.5801C222.797 95.7101 223.329 95.8139 223.841 95.8691V95.8711L223.787 96.3682C224.064 96.3981 224.34 96.415 224.599 96.415C225.13 96.415 225.581 96.3946 226.023 96.2764L225.894 95.7939L225.893 95.792C226.512 95.6264 227.074 95.2457 228.063 94.3867L228.064 94.3877L228.393 94.7646L229.375 93.8887C230.427 92.9358 231.47 92.0983 232.52 91.3691L232.234 90.959C234.609 89.3092 237.025 88.1938 239.631 87.5459L239.752 88.0312C240.858 87.7562 242.001 87.5663 243.194 87.458L243.709 87.417C244.956 87.329 246.195 87.3515 247.414 87.4766L247.464 86.9785C250.006 87.239 252.465 87.9355 254.745 89.001L254.534 89.4541C256.779 90.5032 258.846 91.9187 260.638 93.6328L260.982 93.2715C262.8 95.0101 264.34 97.0496 265.506 99.3242V99.3252L265.062 99.5527C265.621 100.644 266.091 101.79 266.463 102.983C266.768 103.963 266.997 105.07 267.146 106.241L267.641 106.178C267.923 108.389 267.926 110.8 267.649 113L267.154 112.939C267.025 113.968 266.834 114.943 266.583 115.822L266.473 116.193C266.091 117.407 265.541 118.655 264.864 119.882L265.301 120.123C263.985 122.509 262.206 124.798 260.255 126.621L259.915 126.258C259.008 127.105 258.068 127.845 257.126 128.44L256.723 128.687C255.659 129.311 254.564 129.841 253.448 130.278L253.63 130.742C251.277 131.664 248.832 132.182 246.383 132.303L246.358 131.804C243.93 131.923 241.498 131.645 239.153 130.979L239.018 131.46C236.663 130.792 234.395 129.741 232.302 128.317L232.583 127.905C231.592 127.232 230.641 126.472 229.739 125.629L229.219 125.147C229.055 124.998 228.9 124.858 228.753 124.728L228.422 125.103H228.421C227.494 124.285 226.891 123.865 226.247 123.629L226.42 123.159C225.978 122.997 225.53 122.916 225.015 122.857C224.471 122.796 223.945 122.796 223.441 122.856L223.501 123.353V123.354C222.477 123.477 221.577 123.868 220.863 124.502L220.531 124.128C220.185 124.436 219.879 124.793 219.619 125.197L219.511 125.374C219.349 125.648 219.245 126.003 219.165 126.602C219.084 127.204 219.022 128.102 218.973 129.497L219.473 129.516H219.474C219.412 131.232 219.369 133.73 219.34 137.409L218.84 137.405C218.822 139.596 218.809 142.205 218.8 145.316L219.3 145.317H219.302C219.295 147.654 219.29 150.273 219.286 153.212H219.284L218.784 153.211C218.781 155.62 218.779 158.243 218.777 161.101H219.278C219.277 163.562 219.277 166.197 219.276 169.018H218.775V176.819H219.275V184.522H218.775V192.225H219.275V199.927H218.775V207.629H219.275V215.33H218.775V218.68C217.675 218.677 216.574 218.675 215.474 218.673L215.473 219.173H215.472C212.936 219.167 210.401 219.162 207.865 219.156H207.866L207.867 218.656C205.332 218.651 202.797 218.645 200.262 218.64L200.261 219.14H200.26C197.725 219.134 195.189 219.128 192.654 219.122L192.655 218.623C190.12 218.617 187.585 218.612 185.05 218.606L185.049 219.105C182.513 219.1 179.978 219.094 177.442 219.089L177.443 218.59C176.176 218.587 174.908 218.584 173.641 218.581C172.566 218.579 171.515 218.576 170.487 218.574L170.486 219.074L170.485 219.075C168.316 219.071 166.25 219.068 164.284 219.064L164.285 219.063V218.563C162.074 218.56 159.989 218.557 158.023 218.554V219.053C155.797 219.049 153.724 219.044 151.794 219.039L151.796 218.541C149.525 218.535 147.454 218.529 145.565 218.519L145.562 219.016C143.224 219.003 141.167 218.988 139.36 218.965L139.366 218.466C136.81 218.433 134.76 218.386 133.13 218.318L133.109 218.815C128.453 218.622 127.181 218.26 127.349 217.557L127.836 217.673C127.844 217.641 127.878 217.56 127.988 217.417C128.094 217.281 128.24 217.122 128.427 216.935C128.695 216.666 129.051 216.333 129.415 215.965L129.778 215.586C130.762 214.524 131.649 213.396 132.438 212.216L132.021 211.938L132.021 211.937C133.599 209.574 134.777 206.997 135.542 204.308L135.543 204.309L136.024 204.445C136.807 201.693 137.164 198.827 137.082 195.954L136.581 195.969C136.502 193.186 136.004 190.396 135.073 187.7H135.074L135.547 187.537C135.084 186.198 134.517 184.881 133.844 183.6L133.544 183.049C132.822 181.768 131.948 180.52 130.956 179.334L130.572 179.654L130.57 179.655C128.451 177.121 125.776 174.858 122.888 173.159L122.889 173.158L123.142 172.728C121.632 171.84 120.062 171.101 118.478 170.554C117.814 170.325 117.198 170.135 116.578 169.978L116.455 170.462L116.454 170.463C115.297 170.169 114.139 169.995 112.617 169.876L112.618 169.873L112.657 169.374C112.064 169.328 111.418 169.291 110.699 169.259L109.758 169.224C108.839 169.198 107.984 169.2 107.173 169.234L107.194 169.734V169.736C104.721 169.841 102.677 170.249 100.397 171.098V171.097L100.223 170.628C99.458 170.913 98.6697 171.244 97.835 171.628L96.9844 172.029C96.27 172.374 95.6472 172.696 95.0684 173.035L95.3203 173.467C94.1491 174.152 93.1781 174.896 91.9512 176.037L91.6104 175.671C91.1408 176.107 90.6357 176.599 90.0723 177.164C89.4054 177.833 88.7844 178.495 88.207 179.155L88.583 179.484L88.584 179.485C87.3189 180.932 86.273 182.365 85.4219 183.838L85.4209 183.837L84.9873 183.587C84.0534 185.203 83.3493 186.869 82.8467 188.65L83.3271 188.786H83.3281C82.8633 190.433 82.5756 192.183 82.4395 194.091H82.4385L81.9395 194.056C81.8769 194.932 81.8462 195.84 81.8447 196.784C81.8435 197.59 81.8477 198.281 81.8623 198.893L82.3623 198.881V198.88C82.4043 200.634 82.5338 201.713 82.876 203.025V203.026L82.3926 203.152C82.551 203.76 82.752 204.412 83.0059 205.187C83.3238 206.157 83.693 207.108 84.1084 208.031L84.5645 207.826L84.5654 207.825C85.3994 209.679 86.4235 211.42 87.5986 212.983V212.984L87.1992 213.285C87.8209 214.112 88.4848 214.891 89.1855 215.612C89.3922 215.825 89.5752 216.021 89.7363 216.203L90.1084 215.874C90.5891 216.417 90.8973 216.85 91.0596 217.229L90.6006 217.425C90.6985 217.653 90.7158 217.823 90.6953 217.968C90.6842 218.046 90.6732 218.126 90.6621 218.204L91.1572 218.273C91.1351 218.43 91.112 218.587 91.0898 218.744L91.0566 218.74V218.48C89.7878 218.483 88.5188 218.486 87.25 218.489V218.988C84.7122 218.994 82.1745 218.999 79.6367 219.005V218.506C77.099 218.511 74.5611 218.517 72.0234 218.522V219.021C69.4863 219.027 66.9492 219.033 64.4121 219.039L64.4102 218.539C61.8727 218.545 59.3353 218.55 56.7979 218.556L56.7988 219.056C54.2611 219.061 51.7233 219.067 49.1855 219.072L49.1846 218.572L45.3779 218.581C44.1176 218.584 42.8571 218.587 41.5967 218.59V219.089C39.0755 219.094 36.5544 219.1 34.0332 219.105V218.606C31.5121 218.612 28.9908 218.618 26.4697 218.623V219.122C23.9492 219.128 21.4287 219.133 18.9082 219.139L18.9072 218.639C16.3862 218.644 13.8648 218.65 11.3438 218.655L11.3447 219.155C8.82357 219.161 6.30242 219.166 3.78125 219.172L3.78027 218.672C2.68685 218.674 1.59343 218.676 0.5 218.679V215.756H0V208.906H0.5V202.058H0V195.208H0.5V188.358H0V181.509H0.5V174.659H0V167.811H0.5V160.961H0V154.111H0.5V147.262H0V140.413H0.5V133.563H0V126.714H0.5V119.864H0V113.015H0.5V106.166H0V99.3164H0.5V92.4668H0V85.6172H0.5V78.7676H0V71.9189H0.5V65.0693H0V58.2197H0.5V51.3701H0V44.5215H0.5V37.6719H0V30.8223H0.5V23.9727H0V17.123H0.5V10.2744H0V3.4248H0.5V0.5H3.42578V0H10.2783V0.5H17.1309V0H23.9834V0.5H30.8359V0H37.6875V0.5H44.54V0H51.3926V0.5H58.2451V0H65.0977V0.5H71.9502V0H78.8018V0.5H85.6543V0H92.5068V0.5H99.3594V0H106.212V0.5H113.063V0H119.916V0.5H126.769V0H133.621V0.5H140.474V0H147.325V0.5H154.178V0H161.03V0.5H167.883V0H174.735V0.5H181.588V0H188.439V0.5H195.292V0H202.145V0.5H208.997V0H215.85Z" stroke="#D4C8B0" stroke-dasharray="7 7"/>
</svg>
