<svg width="220" height="220" viewBox="0 0 220 220" fill="none" xmlns="http://www.w3.org/2000/svg">
<path d="M215.757 0V0.5H218.682V3.42383H219.182V10.2715H218.682V17.1182H219.182V23.9658H218.682V30.8135H219.182V37.6602H218.682V44.5078H219.182V51.3555H218.682V58.2021H219.182V65.0498H218.682V71.8975H219.182V78.7441H218.682V85.5918H219.182V92.4395H218.682V99.2861H219.182V106.134H218.682V112.981H219.182V119.829H218.682V126.676H219.182V133.523H218.682V140.371H219.182V147.218H218.682V154.065H219.182V160.913H218.682V167.76H219.182V174.607H218.682V181.455H219.182V188.302H218.682V195.149H219.182V201.997H218.682V208.844H219.182V215.691H218.682V218.615H215.757V219.115H208.907V218.615H202.058V219.115H195.209V218.615H188.359V219.115H181.51V218.615H174.66V219.115H167.811V218.615H160.962V219.115H154.112V218.615H147.263V219.115H140.413V218.615H133.563V219.115H126.715V218.615H119.865V219.115H113.016V218.615H106.166V219.115H99.3164V218.615H92.4668V219.115H85.6182V218.615H78.7686V219.115H71.9189V218.615H65.0693V219.115H58.2197V218.615H51.3711V219.115H44.5215V218.615H37.6719V219.115H30.8223V218.615H23.9727V219.115H17.124V218.615H10.2744V219.115H3.4248V218.615H0.500977C0.503413 217.514 0.506357 216.412 0.508789 215.311L0.0078125 215.309C0.0134153 212.771 0.0188292 210.234 0.0244141 207.696L0.525391 207.698C0.530975 205.161 0.536416 202.623 0.541992 200.086L0.0410156 200.084C0.0465908 197.547 0.0530185 195.01 0.0585938 192.473L0.558594 192.474C0.564169 189.936 0.569611 187.399 0.575195 184.861L0.0751953 184.86C0.0807802 182.323 0.0861941 179.785 0.0917969 177.248L0.591797 177.25L0.600586 173.443C0.603477 172.131 0.606541 170.855 0.609375 169.616L0.109375 169.615L0.12793 161.95L0.62793 161.951C0.63517 159.182 0.642596 156.635 0.650391 154.294L0.151367 154.292C0.16082 151.453 0.171376 148.914 0.182617 146.646L0.680664 146.647C0.695495 143.654 0.712331 141.131 0.732422 139.003L0.233398 138.998C0.266699 135.472 0.309523 133.032 0.366211 131.347L0.864258 131.363C0.917155 129.791 0.982315 128.904 1.05957 128.409C1.07203 128.33 1.08725 128.265 1.09863 128.212C1.2224 128.267 1.38087 128.347 1.56836 128.458L1.82031 128.029C2.29546 128.31 2.89441 128.723 3.53125 129.216L3.22656 129.609C3.48711 129.811 3.75484 130.026 4.02246 130.251C4.85227 130.948 5.70183 131.593 6.56836 132.187L6.85059 131.773V131.772C8.63126 132.992 10.483 133.986 12.3799 134.758V134.76L12.1914 135.223C14.2049 136.041 16.2698 136.613 18.3564 136.935L18.4326 136.44V136.438C20.5141 136.759 22.6161 136.828 24.709 136.642L24.71 136.643L24.7549 137.141C26.8625 136.953 28.96 136.513 31.0166 135.82L30.8564 135.347L30.8555 135.346C32.7983 134.691 34.7049 133.806 36.5498 132.69L36.5508 132.691L36.8096 133.119C37.484 132.711 38.1503 132.273 38.8066 131.805L39.46 131.326C40.5714 130.491 41.596 129.581 42.5332 128.609L42.1729 128.262L42.1719 128.261C44.0662 126.296 45.5963 124.072 46.7607 121.688L46.7617 121.688L47.2119 121.908C48.4156 119.443 49.2343 116.81 49.668 114.117L49.1748 114.038L49.1719 114.037C49.598 111.39 49.6451 108.682 49.3115 106.016H49.3145L49.8105 105.953C49.4727 103.252 48.7503 100.593 47.6416 98.0791L47.1846 98.2812H47.1816C46.112 95.8562 44.6779 93.5697 42.874 91.5195H42.875L43.251 91.1885C42.3593 90.175 41.3796 89.218 40.3115 88.3291L39.6416 87.7891C38.9667 87.2604 38.2746 86.7674 37.5684 86.3096L37.2969 86.7285L37.2959 86.7295C35.3874 85.4922 33.3722 84.5176 31.293 83.8057H31.2939L31.4561 83.333C29.2887 82.5908 27.0537 82.1275 24.7988 81.9424L24.7578 82.4414H24.7568C22.537 82.2593 20.2977 82.3514 18.0859 82.7158V82.7148L18.0049 82.2217C15.7863 82.5872 13.5952 83.2222 11.4785 84.124L11.6748 84.584V84.585C9.66057 85.4432 7.71288 86.5459 5.875 87.8955L5.5791 87.4932C4.67614 88.1563 3.79927 88.8774 2.95312 89.6562C2.78396 89.812 2.6143 89.9583 2.44727 90.0918L2.75684 90.4795C2.33216 90.8189 1.92423 91.0874 1.58496 91.25L1.37012 90.8008C1.26762 90.8499 1.1816 90.881 1.11426 90.9014C1.10017 90.8493 1.08301 90.7818 1.06738 90.6943C0.984012 90.2274 0.915066 89.3522 0.859375 87.7148L0.361328 87.7314C0.304452 86.0589 0.260929 83.6269 0.228516 80.0889L0.728516 80.085C0.70904 77.9592 0.692916 75.4335 0.678711 72.4326L0.178711 72.4336C0.167969 70.1642 0.160434 67.6233 0.151367 64.7783H0.649414C0.641939 62.433 0.634006 59.8804 0.626953 57.1035L0.12793 57.1045C0.121873 54.7198 0.115565 52.1693 0.109375 49.4414H0.609375C0.60656 48.2008 0.60349 46.9234 0.600586 45.6084L0.591797 41.8076H0.0917969C0.0861985 39.2738 0.0807811 36.7399 0.0751953 34.2061H0.575195C0.56961 31.6722 0.564173 29.1383 0.558594 26.6045H0.0585938C0.0530149 24.071 0.0465944 21.5374 0.0410156 19.0039L0.541992 19.0029C0.536413 16.4691 0.530976 13.9352 0.525391 11.4014L0.0244141 11.4023C0.0188283 8.86849 0.0134107 6.33464 0.0078125 3.80078L0.508789 3.7998C0.506359 2.69991 0.50341 1.59989 0.500977 0.5H3.4248V0H10.2744V0.5H17.124V0H23.9727V0.5H30.8223V0H37.6719V0.5H44.5215V0H51.3711V0.5H58.2197V0H65.0693V0.5H71.9189V0H78.7686V0.5H85.6182V0H92.4668V0.5H99.3164V0H106.166V0.5H113.016V0H119.865V0.5H126.715V0H133.563V0.5H140.413V0H147.263V0.5H154.112V0H160.962V0.5H167.811V0H174.66V0.5H181.51V0H188.359V0.5H195.209V0H202.058V0.5H208.907V0H215.757Z" stroke="#786A30" stroke-dasharray="7 7"/>
</svg>
