<svg width="318" height="220" viewBox="0 0 318 220" fill="none" xmlns="http://www.w3.org/2000/svg">
<path d="M173.255 45.4414C174.853 44.4143 176.346 43.2071 177.704 41.8574L177.705 41.8574L178.058 42.2119C179.433 40.8451 180.672 39.3338 181.746 37.7148L181.329 37.4385L181.328 37.4385C182.385 35.8457 183.278 34.1468 183.979 32.3769L183.979 32.3769L184.444 32.5605C184.803 31.6556 185.112 30.7323 185.368 29.7949C185.519 29.2421 185.644 28.6397 185.747 27.9824L185.254 27.9053L185.253 27.9053C185.415 26.8721 185.516 25.6883 185.566 24.3262L185.569 24.3262L186.069 24.3447C186.09 23.7711 186.102 23.1666 186.104 22.5303C186.111 20.7732 186.011 19.1572 185.784 17.6289L185.29 17.7021L185.289 17.7031C184.809 14.4629 183.747 11.6527 181.898 8.71484L181.899 8.71386L182.322 8.44726C181.512 7.16014 180.557 5.85358 179.441 4.48339C179.133 4.10492 178.862 3.76455 178.623 3.458L178.229 3.76562C177.41 2.71393 176.97 2.03428 176.831 1.53613L177.312 1.40136C177.265 1.23014 177.281 1.14035 177.306 1.08007C177.331 1.01656 177.388 0.935906 177.512 0.824211C177.537 0.81963 177.571 0.812405 177.615 0.806633C177.764 0.78704 177.987 0.767093 178.293 0.748039C178.904 0.710024 179.812 0.677225 181.053 0.64843L181.041 0.149406C182.854 0.107315 185.361 0.0760906 188.654 0.0537027L188.658 0.55175C190.842 0.536909 193.371 0.526216 196.274 0.519523L196.273 0.0224524C198.574 0.0171476 201.11 0.0131029 203.893 0.0126864L203.893 0.510733C206.252 0.51038 208.789 0.512591 211.513 0.515616L211.514 0.0156158C213.903 0.0182688 216.435 0.0241256 219.116 0.0292873L219.116 0.527334C220.357 0.529723 221.63 0.532233 222.936 0.535147C224.189 0.537954 225.443 0.540156 226.697 0.542959L226.697 0.0439354C229.205 0.0495411 231.714 0.0549452 234.222 0.0605366L234.221 0.560537C236.728 0.566127 239.236 0.571554 241.744 0.577138L241.745 0.0771379C244.253 0.0827207 246.76 0.0891328 249.268 0.0947157L249.268 0.593739C251.775 0.599323 254.283 0.60475 256.791 0.61034L256.791 0.111317C259.299 0.116908 261.807 0.122313 264.314 0.127918L264.314 0.626942C265.403 0.629374 266.491 0.632318 267.579 0.634754C267.584 1.7591 267.589 2.88345 267.594 4.0078L268.093 4.00682C268.104 6.5869 268.115 9.16698 268.126 11.7471L267.627 11.748C267.638 14.328 267.649 16.9083 267.66 19.4883L268.159 19.4873C268.17 22.0674 268.181 24.6474 268.192 27.2275L267.693 27.2295C267.704 29.8095 267.715 32.3897 267.726 34.9697L268.226 34.9678C268.237 37.5478 268.248 40.1279 268.259 42.708L267.759 42.7099L267.792 50.4502L268.291 50.4492C268.302 53.0293 268.313 55.6094 268.324 58.1894L267.825 58.1904C267.836 60.7706 267.847 63.3515 267.858 65.9316L268.357 65.9297C268.368 68.5098 268.38 71.0898 268.391 73.6699L267.891 73.6719C267.902 76.2519 267.913 78.832 267.924 81.4121L268.424 81.4101C268.435 83.9902 268.446 86.5703 268.457 89.1504L267.957 89.1523L267.974 93.0224L267.975 93.1875L268.073 93.3193C268.143 93.4125 268.213 93.5064 268.282 93.5996L268.682 93.3008C268.821 93.4871 268.96 93.673 269.1 93.8594L268.699 94.1582C268.769 94.2514 268.839 94.3452 268.908 94.4385C269.057 94.6375 269.246 94.8372 269.453 95.0264L269.79 94.6572L269.791 94.6562C270.123 94.9605 270.531 95.2604 270.934 95.4922L270.684 95.9248C270.919 96.0607 271.161 96.1804 271.393 96.2685C272.118 96.5447 272.805 96.6992 273.499 96.6894L273.492 96.1894L273.491 96.1885C274.594 96.1732 275.668 95.6905 277.034 94.6279L277.035 94.6289L277.342 95.0234C277.818 94.6532 278.324 94.2175 278.872 93.7148C279.984 92.6945 281.088 91.8173 282.206 91.0723L281.929 90.6582C284.428 88.9923 287.013 87.9618 289.919 87.4736L290.002 87.9648C291.332 87.7414 292.735 87.6328 294.236 87.6328C295.773 87.6328 297.205 87.7449 298.558 87.9746L298.641 87.4834C301.636 87.9921 304.268 89.0717 306.755 90.8135L306.469 91.2217C307.452 91.9104 308.416 92.7072 309.373 93.6191L309.783 94.0166C310.463 94.689 311.094 95.3923 311.675 96.1211L312.064 95.8105C313.288 97.3466 314.293 98.9977 315.071 100.729L314.617 100.933C315.395 102.663 315.939 104.473 316.238 106.327L316.731 106.248C317.037 108.136 317.095 110.069 316.894 112.009L316.396 111.957C316.3 112.885 316.144 113.814 315.926 114.741L315.829 115.135C315.596 116.048 315.303 116.94 314.955 117.807L315.419 117.993C314.599 120.039 313.481 121.947 312.119 123.666L311.729 123.356C310.399 125.036 308.831 126.531 307.078 127.791L307.368 128.196C305.599 129.468 303.647 130.506 301.562 131.259L301.394 130.789C300.39 131.151 299.355 131.446 298.295 131.668L297.664 131.788C297.028 131.897 296.38 131.972 295.724 132.015L295.755 132.513C294.011 132.626 292.216 132.514 290.442 132.197L290.53 131.705C288.822 131.4 287.133 130.9 285.529 130.227L285.336 130.687C283.87 130.072 282.473 129.313 281.195 128.426L280.7 128.071L280.997 127.669C280.292 127.148 279.629 126.587 279.018 125.988C278.385 125.369 277.774 124.839 277.179 124.402L276.883 124.806L276.882 124.807C275.309 123.652 273.894 123.199 272.509 123.417L272.509 123.416L272.431 122.922C271.623 123.049 270.841 123.378 270.068 123.884L269.812 124.044C269.727 124.095 269.636 124.15 269.548 124.209C269.367 124.329 269.181 124.475 269.011 124.687C268.674 125.109 268.463 125.717 268.307 126.725L268.801 126.801L268.802 126.802C268.618 127.988 268.498 129.877 268.42 132.992L268.419 132.991L267.919 132.979C267.877 134.66 267.847 136.698 267.826 139.171L268.326 139.175L268.327 139.176C268.312 140.997 268.3 143.055 268.292 145.384L268.292 145.383L267.792 145.382C267.786 147.265 267.782 149.324 267.779 151.577L268.279 151.577L268.279 151.578C268.277 153.502 268.276 155.568 268.275 157.786L267.775 157.786C267.775 159.737 267.774 161.805 267.774 163.998L268.275 163.998C268.276 165.959 268.275 168.02 268.275 170.187L267.775 170.187L267.775 177.17L268.275 177.17L268.275 184.869L267.775 184.869L267.775 192.568L268.275 192.568L268.275 200.268L267.775 200.268L267.775 207.967L268.275 207.967L268.275 215.666L267.775 215.666L267.775 219.015C266.674 219.012 265.572 219.009 264.47 219.007L264.469 219.507L264.468 219.508C261.93 219.502 259.392 219.497 256.854 219.491L256.855 219.49L256.856 218.99C254.319 218.985 251.782 218.979 249.244 218.974L249.243 219.474L249.242 219.475L241.63 219.457L241.631 218.957C239.093 218.951 236.555 218.946 234.018 218.94L234.017 219.44L226.403 219.424L226.404 218.924L218.791 218.906L218.79 219.406L218.789 219.407C216.251 219.402 213.714 219.396 211.176 219.391L211.177 219.39L211.178 218.89C208.64 218.884 206.103 218.879 203.565 218.873L203.563 219.373L203.562 219.374L195.951 219.356L195.952 218.856C193.414 218.851 190.877 218.845 188.339 218.84L188.338 219.34C185.8 219.334 183.262 219.329 180.724 219.323L180.725 219.322L180.726 218.822C179.457 218.819 178.188 218.817 176.919 218.814L176.918 219.088L176.887 219.092L176.886 219.093C176.865 218.944 176.844 218.796 176.823 218.647L177.318 218.577L177.287 218.355L177.286 218.354C177.273 218.259 177.293 218.078 177.436 217.773L176.983 217.562C177.174 217.155 177.504 216.665 177.98 216.075L178.368 216.388C178.537 216.179 178.725 215.956 178.935 215.719C179.607 214.957 180.242 214.159 180.836 213.332L180.43 213.04L180.429 213.04C181.604 211.404 182.617 209.655 183.434 207.851L183.435 207.851L183.891 208.057C184.314 207.12 184.685 206.169 185 205.21C185.248 204.456 185.443 203.814 185.593 203.193L185.107 203.075L185.105 203.075C185.396 201.873 185.509 200.769 185.549 198.984L185.553 198.984L186.053 198.995C186.066 198.389 186.071 197.707 186.071 196.921C186.071 196.146 186.067 195.471 186.054 194.871L185.554 194.882L185.55 194.883C185.511 193.112 185.402 192.01 185.124 190.84L185.126 190.839L185.612 190.724C185.502 190.258 185.366 189.785 185.202 189.265L185.028 188.727C184.666 187.631 184.239 186.563 183.751 185.528L183.299 185.741L183.298 185.742C182.33 183.688 181.12 181.765 179.714 180.015L179.716 180.014L180.105 179.7C178.66 177.901 177.01 176.281 175.2 174.885L174.895 175.28L174.894 175.282C173.098 173.897 171.144 172.737 169.077 171.849L169.078 171.848L169.276 171.389C168.484 171.048 167.674 170.746 166.851 170.485L166.023 170.238C164.944 169.937 163.725 169.709 162.448 169.554L162.389 170.05L162.388 170.053C160.076 169.772 157.544 169.732 155.266 169.937L155.266 169.933L155.221 169.435C153.92 169.552 152.691 169.748 151.623 170.029L151.172 170.152C150.123 170.447 149.099 170.8 148.104 171.209L148.295 171.672L148.295 171.673C146.026 172.606 143.912 173.832 141.997 175.309L141.997 175.308L141.692 174.912C139.734 176.422 137.98 178.189 136.477 180.167L136.874 180.47L136.875 180.471C135.418 182.387 134.2 184.505 133.262 186.783L133.262 186.782L132.799 186.592C132.332 187.725 131.934 188.898 131.609 190.104L131.516 190.473C131.306 191.358 131.153 192.404 131.053 193.522L131.551 193.567L131.553 193.568C131.36 195.714 131.363 198.172 131.559 200.325L131.557 200.325L131.059 200.37C131.16 201.484 131.313 202.529 131.521 203.417L131.614 203.787C131.879 204.783 132.21 205.782 132.599 206.768L133.063 206.584C133.812 208.486 134.781 210.344 135.907 212.043L135.49 212.319C135.93 212.983 136.394 213.623 136.879 214.233L137.37 214.833C137.698 215.221 137.991 215.567 138.253 215.877L138.634 215.556C139.529 216.617 140.058 217.26 140.339 217.686L139.924 217.959C140.075 218.188 140.1 218.285 140.104 218.309C140.1 218.316 140.093 218.325 140.084 218.338C140.048 218.389 140.004 218.439 139.927 218.532C139.916 218.537 139.899 218.544 139.874 218.552C139.779 218.582 139.617 218.617 139.348 218.652C138.811 218.722 137.932 218.78 136.492 218.827L136.508 219.326C134.809 219.381 132.36 219.42 128.829 219.447L128.826 218.948C126.686 218.965 124.146 218.978 121.136 218.987L121.137 219.485C118.856 219.492 116.305 219.497 113.452 219.501L113.452 219.003C111.105 219.006 108.553 219.008 105.779 219.01L105.78 219.51C103.383 219.511 100.819 219.511 98.0771 219.512L98.0771 219.013L90.4375 219.013L90.4375 219.513L82.8486 219.513L82.8486 219.013L75.2607 219.013L75.2607 219.513L67.6719 219.513L67.6719 219.013L60.083 219.013L60.083 219.513L52.4951 219.513L52.4951 219.013L49.2002 219.013C49.2002 217.894 49.2002 216.775 49.2002 215.656L48.6992 215.656C48.6991 213.086 48.6993 210.515 48.6992 207.944L49.2002 207.944C49.2001 205.374 49.2003 202.802 49.2002 200.231L48.7002 200.231L48.6992 200.232C48.6991 197.661 48.6993 195.09 48.6992 192.52L49.1992 192.52C49.1991 189.949 49.1993 187.378 49.1992 184.808L48.6992 184.808C48.6991 182.237 48.6993 179.666 48.6992 177.096L49.1992 177.096C49.1992 175.81 49.1992 174.525 49.1992 173.239C49.1992 171.877 49.1984 170.556 49.1982 169.272L48.6973 169.272C48.697 166.442 48.6962 163.801 48.6953 161.335L48.6973 161.334L49.1973 161.334C49.1962 158.455 49.1948 155.816 49.1924 153.396L48.6924 153.396L48.6895 153.396C48.6864 150.442 48.684 147.814 48.6777 145.475L48.6787 145.474L49.1787 145.472C49.1704 142.346 49.1582 139.735 49.1416 137.55L48.6416 137.553L48.6396 137.554C48.6113 133.812 48.5705 131.321 48.5068 129.632L49.0068 129.613C48.8981 126.726 48.7308 126.061 48.3799 125.485L48.3799 125.484C48.2449 125.263 48.0644 125.037 47.8643 124.821L47.498 125.162L47.4961 125.164C47.1779 124.821 46.7776 124.476 46.374 124.2L46.375 124.199L46.6572 123.786C46.4242 123.627 46.1838 123.485 45.9502 123.374C45.2513 123.042 44.5873 122.837 43.9053 122.809L43.8848 123.308L43.8838 123.31C42.8241 123.266 41.7762 123.714 40.3857 124.768L40.3848 124.766L40.083 124.367C39.6136 124.723 39.1106 125.143 38.5625 125.628L37.9453 126.153C37.312 126.674 36.6305 127.178 35.916 127.656L36.1943 128.072C34.314 129.332 32.2157 130.414 30.1592 131.19L29.9844 130.724C28.8928 131.136 27.8169 131.457 26.7988 131.67L26.2715 131.772C25.0383 131.994 23.7975 132.094 22.5625 132.08L22.5566 132.58C19.6346 132.547 16.7478 131.893 14.0664 130.732L14.2646 130.273C11.6557 129.144 9.24456 127.525 7.19628 125.523L6.84668 125.881C4.7693 123.851 3.05725 121.438 1.875 118.75L2.33203 118.548C1.7638 117.256 1.32082 115.899 1.02246 114.491C0.824956 113.559 0.684097 112.635 0.598628 111.72L0.102534 111.767C-0.0793445 109.82 -0.0167635 107.912 0.288081 106.062L0.782222 106.142C1.08538 104.302 1.63213 102.519 2.41699 100.812L1.96386 100.604C2.74314 98.9097 3.75113 97.2888 4.98339 95.7588L5.37206 96.0703C5.94818 95.3551 6.57531 94.6594 7.25195 93.9854C8.33147 92.9101 9.42468 91.9851 10.5508 91.2002L10.2646 90.792C12.7296 89.0737 15.3651 88.0002 18.3633 87.4912L18.4473 87.9814C19.7972 87.7523 21.2269 87.6398 22.7559 87.6377C24.2649 87.6357 25.6667 87.7393 26.9902 87.957L27.0713 87.4658C29.9831 87.9449 32.5491 88.9692 35.0537 90.6514L34.7764 91.0645C35.8852 91.8092 36.9854 92.6888 38.1035 93.7148C38.8094 94.3627 39.4729 94.9091 40.1045 95.3516L40.3906 94.9424C42.1831 96.1982 43.6531 96.5433 45.1006 96.0293L45.1016 96.0312L45.2695 96.502C46.0489 96.225 46.7981 95.733 47.5508 95.0605C47.6578 94.9649 47.7651 94.869 47.8721 94.7734L47.5381 94.4014L47.5371 94.4014C47.7513 94.2099 47.9655 94.0186 48.1797 93.8271L48.1807 93.8271L48.5146 94.1992C48.6215 94.1037 48.728 94.0077 48.835 93.9121L49.001 93.7646L49.0019 93.542C49.0075 92.2448 49.013 90.9476 49.0185 89.6504L48.5185 89.6475L48.5176 89.6475C48.5286 87.0531 48.5398 84.4587 48.5508 81.8643L48.5518 81.8643L49.0518 81.8662C49.0628 79.2718 49.074 76.6774 49.085 74.083L48.585 74.0801L48.584 74.0801C48.595 71.4857 48.6062 68.8913 48.6172 66.2969L48.6182 66.2969L49.1182 66.2988C49.1292 63.7044 49.1394 61.11 49.1504 58.5156L48.6504 58.5137C48.6614 55.9193 48.6726 53.3249 48.6836 50.7305L49.1836 50.7314L49.2168 42.9482L48.7168 42.9453L48.7158 42.9453C48.7268 40.3509 48.738 37.7565 48.749 35.1621L48.75 35.1621L49.25 35.1641C49.261 32.5697 49.2722 29.9753 49.2832 27.3809L48.7832 27.3789L48.7822 27.3789C48.7932 24.7842 48.8044 22.1895 48.8154 19.5947L48.8164 19.5947L49.3164 19.5967C49.3274 17.0023 49.3376 14.4079 49.3486 11.8135L48.8486 11.8125C48.8596 9.21776 48.8708 6.62304 48.8818 4.02832L49.3818 4.02929C49.3866 2.89778 49.3907 1.76627 49.3955 0.634763C50.4872 0.632326 51.5792 0.629385 52.6709 0.626951L52.6699 0.127927C55.1839 0.122322 57.6979 0.116916 60.2119 0.111325L60.2119 0.110349L60.2129 0.610349C62.7269 0.604758 65.2409 0.599331 67.7549 0.593747L67.7539 0.0947236C70.2676 0.0891406 72.7812 0.0827282 75.2949 0.0771451L75.2959 0.0771451L75.2969 0.577145C77.8109 0.571561 80.3249 0.566134 82.8389 0.560543L82.8379 0.0605433L82.8369 0.0605433C85.3512 0.0549516 87.8655 0.0495472 90.3799 0.0439414L90.3808 0.542965C91.6379 0.540162 92.8953 0.53796 94.1523 0.535152C95.4663 0.532225 96.7426 0.528981 97.9824 0.526363L97.9814 0.028316C100.713 0.0225496 103.266 0.0167655 105.654 0.0126907L105.654 0.0117141L105.655 0.511714C108.418 0.507 110.958 0.503041 113.295 0.500972L113.295 0.00292474C116.139 0.000405975 118.681 0.00183037 120.953 0.00390096L120.953 0.500971C123.953 0.503706 126.481 0.510233 128.612 0.522455L128.614 0.0244084C132.135 0.0445975 134.573 0.079631 136.264 0.13183L136.249 0.6289C137.659 0.672437 138.528 0.728271 139.065 0.795892C139.335 0.829785 139.503 0.864323 139.605 0.895502C139.652 0.9096 139.676 0.922365 139.687 0.927728C139.898 1.13929 140.01 1.26822 140.064 1.36523L140.498 1.12109C140.708 1.49288 140.585 1.80423 140.059 2.40917L139.683 2.08105C139.552 2.23111 139.393 2.40344 139.2 2.60644L138.812 3.0205C137.921 3.98933 137.106 4.97866 136.366 5.9912L136.77 6.28613L136.77 6.2871C135.003 8.70445 133.677 11.2514 132.766 13.9775L132.766 13.9766L132.292 13.8174C131.829 15.2017 131.472 16.6308 131.217 18.1094L131.135 18.6103C130.955 19.7783 130.854 20.9408 130.827 22.0918L131.327 22.1035L131.327 22.1045C131.264 24.7758 131.609 27.3852 132.305 29.8691L132.303 29.8691L131.821 30.0039C132.546 32.5915 133.644 35.0446 135.058 37.292L135.48 37.0254L135.482 37.0244C136.877 39.2424 138.584 41.2577 140.544 43L140.543 43.001L140.211 43.375C142.193 45.1369 144.43 46.6252 146.863 47.7695L147.076 47.3174L147.077 47.3154C149.411 48.4129 151.926 49.1887 154.571 49.5771L154.571 49.5781L154.498 50.0723C155.8 50.2634 157.132 50.3633 158.488 50.3633C159.601 50.3633 160.675 50.3036 161.73 50.1797L161.672 49.6826L161.671 49.6826C163.76 49.4374 165.765 48.9334 167.846 48.1348L167.847 48.1367L168.025 48.6035C168.994 48.2319 169.976 47.798 170.987 47.2988C171.858 46.8689 172.706 46.3881 173.525 45.8613L173.255 45.4414Z" stroke="#786A30" stroke-dasharray="7 7"/>
</svg>
